<?xml version="1.0" encoding="UTF-8"?>
<svg id="Layer_1" data-name="Layer 1" xmlns="http://www.w3.org/2000/svg" viewBox="0 0 3503.05 1890.91">
  <defs>
    <style>
      .cls-1 {
        fill: #fff;
      }

      .cls-2 {
        fill: #3f3f3f;
      }

      .cls-3 {
        fill: #d87012;
      }

      .cls-4 {
        fill: #2c2a30;
      }

      .cls-5 {
        fill: #b08174;
      }

      .cls-6 {
        fill: #755c3d;
      }

      .cls-7 {
        fill: #8e8d8e;
      }

      .cls-8 {
        fill: #eab186;
      }

      .cls-9 {
        fill: #ccdde7;
      }

      .cls-10 {
        fill: #333;
      }

      .cls-11 {
        fill: #d1d1d3;
      }

      .cls-12 {
        fill: #dbb271;
      }

      .cls-13 {
        fill: #080305;
      }

      .cls-14 {
        fill: #ef861d;
      }

      .cls-15 {
        fill: #1b191b;
      }

      .cls-16 {
        fill: #f8bd8c;
      }

      .cls-17 {
        fill: #e5d1b3;
      }

      .cls-18 {
        fill: #999;
      }

      .cls-19 {
        fill: #ababab;
      }

      .cls-20 {
        fill: #f2b588;
      }

      .cls-21 {
        fill: #1d1647;
      }

      .cls-22 {
        fill: #1a1a1a;
      }

      .cls-23 {
        fill: #e2b897;
      }

      .cls-24 {
        fill: #baa68a;
      }

      .cls-25 {
        fill: #fcfcfc;
      }
    </style>
  </defs>
  <g>
    <path class="cls-23" d="M559.95,1889.44H74.95l8.57-237.97,.25-7.19,.06-1.5,398.82-18.22,57.27-2.61,1.66,22.2,7.31,97.68v.14s2.66,35.49,2.66,35.49h0s1.16,15.46,1.16,15.46l7.22,96.53Z"/>
    <path class="cls-23" d="M328.8,1889.44H74.76l4.56-241.84,.09-4.82,4.36,1.5,46.48,15.97,115.47,39.67s.06,.02,.19,.06l76.48,26.27,6.4,163.2Z"/>
    <polygon class="cls-16" points="378.59 1015.51 239.2 1031.85 235.78 938 235.54 931.54 235.09 919.19 349.14 905.82 356.56 904.95 362.79 936.25 378.59 1015.51"/>
    <path class="cls-14" d="M217.74,1001.09s-162.42,67.67-166.93,81.21c-4.51,13.53-22.56,51.88-22.56,51.88,0,0,78.95,191.74,58.65,257.16-20.3,65.42-6.77,173.7-6.77,207.53s-13.53,47.37,11.28,56.39c24.81,9.02,106.02,4.51,151.14,0,45.12-4.51,137.6,1.4,157.91,5.21,20.3,3.81,142.12-16.49,142.12-16.49,0,0,15.79-85.72,11.28-128.58-4.51-42.86,1.62-144.37,.81-160.16-.81-15.79,7.73-22.56,.07-60.91-7.65-38.35,30.7-248.14,30.7-248.14l-187.23-68.24-180.46,23.12Z"/>
    <g>
      <polygon class="cls-3" points="302.56 993.17 279.13 1071.51 176.07 1019.5 201.05 993.17 302.56 993.17"/>
      <path class="cls-6" d="M280.27,1074.15l-107.25-54.12,27.24-28.71h104.78l-24.77,82.83Zm-101.16-55.18l98.88,49.89,22.08-73.85h-98.24l-22.73,23.95Z"/>
    </g>
    <g>
      <polygon class="cls-3" points="282.46 993.17 314.05 1071.51 431.62 988.72 403.54 958.46 282.46 993.17"/>
      <path class="cls-6" d="M313.21,1074.36l-33.22-82.4,124.14-35.59,30.29,32.65-121.2,85.34Zm-28.27-79.98l29.95,74.28,113.94-80.23-25.87-27.88-118.02,33.84Z"/>
    </g>
    <path class="cls-14" d="M108.63,1048.97s69.39,26.88,63.03,299.02l252.8-58.03,30.99,128.07s-277.43,120.06-349.44,118.06c-72.01-2.01-118.6-330.18-103.77-366.2,14.82-36.02,18.9-87.32,103.61-119.34l2.77-1.58Z"/>
    <polygon class="cls-16" points="437.85 1296.46 502.98 1272.09 486.82 1370.43 435.91 1372.99 424.76 1303.33 437.85 1296.46 437.85 1296.46"/>
    <polygon class="cls-16" points="234.77 1337.25 181.54 1349.52 179.42 1336.62 175.9 1315.24 179.55 1316.6 234.77 1337.25 234.77 1337.25"/>
    <path class="cls-14" d="M526.37,1063.12l-41.71,296.86-264.87-35.62-31.29,130.6s358.73,87.08,429.62,63.33c70.91-23.75,37.54-350.27,18.78-391.83-18.78-41.55-31.45-74.06-56.47-81.98-25.03-7.9-54.06,18.65-54.06,18.65h0Z"/>
    <path class="cls-8" d="M362.79,936.25c-5.58,12.79-15.29,24.66-30.32,30.06-33.14,11.91-74.58-12.96-96.69-28.32l-.24-6.46c1.91,.3,4.07,.56,6.51,.76,14.6,1.21,36.39,.82,63.79-6.03,19.6-4.9,33.61-12.82,43.3-20.44l7.42-.87,6.23,31.3Z"/>
    <path class="cls-16" d="M378.93,783.8c6.08,76.89-30.25,142.64-86.71,147.11-56.46,4.46-107.16-54.25-113.24-131.14-6.08-76.89,34.76-142.84,91.22-147.31,56.46-4.46,102.65,54.45,108.73,131.34Z"/>
    <path class="cls-22" d="M301.74,952.45c-54.05,8.03-107.02-47.82-118.39-124.61-1.08-7.4-1.71-14.71-2.08-21.93,12.63,74.62,64.79,128.31,117.84,120.46,48.72-7.22,81.57-63.88,79.22-131.29,.27,1.26,.45,2.53,.63,3.79,11.37,76.79-23.19,145.54-77.24,153.57Z"/>
    <path class="cls-22" d="M221.5,613.84s-.64,57.15,13.59,65.42c14.23,8.27,30.5-6.77,43.42-9.02,12.92-2.26,39.07-4.48,57.39,11.48,18.32,15.96,34.04,62.52,34.04,62.52l4.02,15.6s10.71,2.7,11.84-11.96c1.13-14.66-1.88-76.13,0-82.15,1.88-6.02,1.13-12.03-5.64-18.8-6.77-6.77-15.41-17.29-12.78-21.81,2.63-4.51,13.91-16.17,3.01-26.32-10.9-10.15-63.54-16.54-73.31-7.52-9.77,9.02-46.24-25.57-75.57,22.56Z"/>
    <path class="cls-22" d="M211.53,618.17s-51.32,5.64-52.45,50.75c0,0-6.2,10.15-18.61,26.51-12.41,16.35,2.26,43.99,5.64,60.34,3.38,16.35,10.34,29.89,9.96,34.78-.38,4.89,9.01,14.29,17.48,10.53,8.47-3.76,10.35-13.79,10.35-13.79,0,0,.75-63.66,10.15-74.93,9.4-11.28,25.38-22.37,34.59-27.07,9.21-4.7,11.28-13.53,11.28-14.66s-11.66-62.79-11.66-62.79l-16.73,10.34Z"/>
    <path class="cls-16" d="M200.24,811.45c7.07,14.54,4.47,30.37-5.79,35.36-10.27,4.99-24.33-2.74-31.4-17.28-7.07-14.54-4.48-30.37,5.79-35.36,10.27-4.99,24.33,2.74,31.4,17.28Z"/>
    <path class="cls-16" d="M399.48,791.57c-1.85,16.06-12.54,28.02-23.89,26.71-11.35-1.3-19.05-15.38-17.2-31.44,1.85-16.06,12.54-28.02,23.89-26.71,11.35,1.3,19.05,15.38,17.2,31.44Z"/>
    <path class="cls-22" d="M244.66,762.49c-7.02,.44-14.44,1.37-21.41,2.83-6.96,1.46-13.93,3.54-19.14,6.77l-.26,.16c-2.75,1.71-6.37,.86-8.08-1.89-1.68-2.71-.88-6.26,1.77-7.99,7.54-4.95,15.29-7.23,22.97-9.16,7.75-1.85,15.3-3.04,23.32-3.79,3.6-.34,6.79,2.31,7.13,5.91,.34,3.6-2.31,6.79-5.91,7.13-.06,0-.11,.01-.17,.01h-.22Z"/>
    <path class="cls-22" d="M238.69,790.42c.83,5.6-2.33,10.71-7.05,11.41-4.72,.7-9.23-3.28-10.06-8.88-.83-5.6,2.33-10.71,7.05-11.41,4.72-.7,9.23,3.28,10.06,8.88Z"/>
    <path class="cls-22" d="M304.28,755.37c6.94-1.16,14.38-1.94,21.5-2.1,7.11-.16,14.37,.29,20.18,2.25l.29,.1c3.07,1.04,6.4-.61,7.44-3.67,1.02-3.02-.56-6.29-3.53-7.39-8.47-3.11-16.53-3.57-24.45-3.71-7.97-.04-15.6,.51-23.57,1.59-3.58,.49-6.09,3.79-5.61,7.37,.49,3.58,3.79,6.09,7.37,5.61,.06,0,.11-.02,.17-.03l.22-.04Z"/>
    <path class="cls-22" d="M316.42,781.21c.46,5.65,4.7,9.91,9.46,9.52,4.76-.39,8.24-5.28,7.78-10.93-.46-5.65-4.7-9.91-9.46-9.52-4.76,.39-8.24,5.28-7.78,10.93Z"/>
    <path class="cls-22" d="M251.57,917.35c2.97,2.02,13.29-.47,16.63-1.18,5.69-1.21,12.19-3.37,15.75-8.29,4.08-5.63,2.18-14.12,1.68-20.55-.14-1.84,.17-6.9-1.35-8.42,0,0,14.9-2.24,15.04-2.26-1.33,.2,2.66,21.2,3.29,22.92,1.69,4.58,6.3,7.16,10.81,8.3,4.72,1.19,9.87,1.33,14.71,.98,1.19-.09,12.84-1.08,12.95-2.3-.09,1.03-.84,1.86-1.57,2.6-7.59,7.78-16,14.76-24.4,21.64,0,0-39.85,3.38-40.98,2.26-1.13-1.13-22.52-15.66-22.56-15.69Z"/>
    <path class="cls-25" d="M325.79,861.98c-5.23,9.29-16.33,17.05-30.32,19.76-18.59,3.61-35.91-2.71-42.59-14.44,0-.18,.18-.36,.36-.54,2.35-1.98,4.78-3.7,7.4-5.14l54.59-6.5c4.24,.9,8.03,2.53,10.56,6.86Z"/>
    <path class="cls-22" d="M248.04,924.78c-1.17-11.37-4.42-47.75,.33-58.58v-.74l1.62-1.83c3-2.57,5.67-4.42,8.48-5.97,8.85-5.19,19.88-8.17,31.79-8.59,6.55-.3,13-.07,19.19,.66l1.53,.18c1.76,.21,3.49,.41,5.22,.79,4.37,.93,9.88,2.8,13.49,8.99,3.74,6.4,5.35,13.32,6.91,20.01,.4,1.72,.8,3.44,1.23,5.14,2.61,10.42,3.42,19.23,2.55,27.74l-8.97-.92c.75-7.44,.02-15.27-2.33-24.61-.44-1.75-.85-3.53-1.28-5.31-1.46-6.31-2.85-12.28-5.91-17.5-1.48-2.56-3.61-3.88-7.6-4.72-1.46-.32-2.9-.48-4.36-.65l-1.58-.19c-5.67-.67-11.64-.87-17.74-.6-10.47,.37-20.04,2.93-27.7,7.41-2.21,1.22-4.25,2.61-6.29,4.3l-.07,.1c-2.63,4.02-1.89,31.15,.45,53.97l-8.97,.92Z"/>
    <path class="cls-22" d="M273.82,829.81c-.44,0-.87-.24-1.09-.65-.32-.6-.09-1.35,.51-1.66l9.7-5.16c3.08-1.64,4.8-4.61,4.38-7.57l-4.93-34.18c-.1-.67,.37-1.3,1.04-1.39,.67-.09,1.3,.37,1.39,1.04l4.93,34.18c.58,4-1.64,7.96-5.65,10.1l-9.7,5.16c-.18,.1-.38,.14-.58,.14Z"/>
    <path class="cls-6" d="M329.22,1844.49c-1.33,0-2.43-1.06-2.46-2.4-.96-40.75-3.46-106.96-6.13-114.04-8.95-5.33-53.13-19.12-75.6-25.78-1.3-.39-2.05-1.76-1.66-3.06,.39-1.3,1.76-2.05,3.06-1.66,2.73,.81,66.88,19.84,77.31,26.63,1.63,1.06,3.66,2.38,6.09,60.87,1.17,28.3,1.85,56.64,1.86,56.92,.03,1.36-1.04,2.49-2.4,2.52-.02,0-.04,0-.06,0Zm-8.71-116.73h0Z"/>
    <path class="cls-6" d="M178.38,1351.98c-.52,0-1.02-.16-1.45-.47-.6-.44-.97-1.13-1.01-1.87-.35-7.33-10.22-124.25-10.32-125.43-.11-1.35,.89-2.55,2.25-2.66,1.35-.11,2.55,.89,2.66,2.25,.38,4.48,8.68,102.87,10.13,122.57,13.79-3.69,73.05-19.47,96.76-24.16,1.33-.27,2.63,.6,2.89,1.94,.26,1.33-.6,2.63-1.94,2.89-26.62,5.27-98.61,24.66-99.33,24.86-.21,.06-.43,.09-.64,.09Z"/>
    <path class="cls-6" d="M113.88,1533.6c-7.81,0-14.93-.8-20.8-2.72-35.32-11.57-59.48-106.48-60.49-110.52-.33-1.32,.47-2.66,1.79-2.99,1.32-.33,2.66,.47,2.99,1.79,.24,.96,24.5,96.31,57.24,107.03,33.25,10.89,113.36-17.5,114.16-17.79,1.28-.46,2.69,.21,3.15,1.49,.46,1.28-.21,2.69-1.49,3.15-2.79,1-58,20.56-96.55,20.56Z"/>
    <path class="cls-6" d="M306.84,1477.91c-.9,0-1.77-.5-2.2-1.36-.61-1.22-.12-2.69,1.1-3.3l74.92-37.54c1.22-.61,2.7-.12,3.3,1.1,.61,1.22,.12,2.69-1.1,3.3l-74.92,37.54c-.35,.18-.73,.26-1.1,.26Z"/>
    <path class="cls-6" d="M482.28,1361.22c-.13,0-.26,0-.39-.03-1.34-.22-2.26-1.48-2.04-2.82l20.7-129.17c.21-1.34,1.48-2.26,2.82-2.04,1.34,.22,2.26,1.48,2.04,2.82l-20.7,129.17c-.19,1.21-1.24,2.07-2.43,2.07Z"/>
    <path class="cls-6" d="M518.66,1520.6c-.13,0-.25,0-.38-.03l-124.09-19.26c-1.34-.21-2.26-1.47-2.06-2.81,.21-1.34,1.46-2.26,2.81-2.06l124.09,19.26c1.34,.21,2.26,1.47,2.06,2.81-.19,1.22-1.24,2.08-2.43,2.08Z"/>
  </g>
  <g>
    <polygon class="cls-16" points="1139.75 763.21 1117.38 844.91 1165.62 901.39 1234.53 866.85 1231.65 780.78 1139.75 763.21"/>
    <polygon class="cls-14" points="1385.98 1484.26 1385.98 1889.44 1180.48 1889.44 1180.48 1494.53 1372.51 1484.94 1385.98 1484.26"/>
    <path class="cls-14" d="M1247.28,1503.09l-7.03,19.45-6.92,19.2-23.28,64.46-29.56,81.84-47.45,201.42h-185.92c.11,.57,.15,.85,.15,.85l-25.53,.62,.18-1.47,10.25-82.49,1.5-12.1,4.01-32.36,3.76-30.29,2.84-22.89,13.3-107.15,3.62-29.16,8.68-69.92h277.41Z"/>
    <path class="cls-17" d="M1122.65,829.91s-101.03,61.68-145.55,83.35c-44.52,21.67-73.63,53.34-83.91,71.68-10.27,18.34-34.25,35.01-32.54,46.67,1.71,11.67-39.39,61.68-47.95,103.35-8.56,41.67-23.97,180.03-23.97,185.03s27.4,120.02,27.4,120.02c0,0,80.48,80.01,97.61,98.35,17.12,18.34,68.5,48.34,75.35,48.34s49.66-28.34,47.95-56.68c-1.71-28.34-13.7-110.02-25.69-123.35-9.37-10.43-20.84-19.84-29.49-33.81-2.41-3.89-4.6-8.14-6.47-12.87-8.56-21.67,15.41-73.35,15.41-73.35,0,0,77.06-183.36,73.63-208.37-3.43-25,22.26-113.35,15.41-136.69-6.85-23.34,42.81-111.69,42.81-111.69Z"/>
    <path class="cls-17" d="M1394.92,1054.85s17.12,235.13,15.41,275.14c-1.71,40.01-10.03,63.34,.12,108.35,10.15,45.01,5.26,58.34,0,75.01-5.26,16.67-70.33,15-70.33,15l-304.92-17.76-114.62-165.61,148.98-463.41,53.08-51.68s60.79,51.68,111.31,20.84c0,0,140.42,79.18,160.11,94.18,19.69,15,.86,109.93,.86,109.93Z"/>
    <path class="cls-17" d="M1396.06,951.04s49.09,48.9,47.95,81.13c-1.14,32.23,12.56,152.25,10.27,186.7-2.28,34.45,3.43,35.56,7.99,61.12,4.57,25.56,23.4,76.68,25.12,133.36,1.71,56.68,26.54,97.52,9.42,125.85-17.12,28.34-29.97,36.67-29.97,36.67,0,0-4.28-43.25-11.99-47.46-7.71-4.21-44.4-15.05-44.4-15.05l-40.65-448.96,26.26-113.35Z"/>
    <path class="cls-8" d="M1128.71,774.58c-4.93-11.48,32.84,63.58,71.39,59.36,33.07-3.61,34.43-64.72,34.43-64.72,0,0-11.74,19.3-46.63,19.34-38.92,.05-59.19-13.98-59.19-13.98h0Z"/>
    <path class="cls-20" d="M1302.95,677.38c-.89,16.49-11.83,29.31-24.42,28.63-12.6-.68-22.09-14.6-21.2-31.09,.89-16.49,11.83-29.31,24.42-28.63,12.6,.68,22.09,14.6,21.2,31.09Z"/>
    <path class="cls-20" d="M1120.46,667.29c-.89,16.49-11.83,29.31-24.42,28.63-12.6-.68-22.09-14.6-21.2-31.09,.89-16.49,11.83-29.31,24.42-28.63,12.6,.68,22.09,14.6,21.2,31.09Z"/>
    <path class="cls-16" d="M1292.67,676.59c-11.95,70.21-52.67,130.55-108.79,127.52-56.12-3.03-85.57-55.29-94.43-138.49-7.77-72.98,52.67-130.55,108.79-127.52,56.12,3.03,106.76,66.05,94.43,138.49Z"/>
    <path class="cls-14" d="M1163.88,565.71c.16,4.65-.56,12.12-.1,14.37,1.25,6.21,4.51,12.25,9.78,15.11,3.64,1.98,7.86,2.28,11.95,2.39,14.91,.39,30.48-6.03,44.78-5.37,6.58,.3,11.58,5.08,17.17,8.81,10.33,6.9,29.36,5.28,29.36,5.28,9.75,13.63,10.69,33.94,20.63,46.52,2.39-1.49,4.55-3.45,6.79-5.34,13.37-11.25,14.15-13.29,9.82-30.95-3.47-14.13,6.03-20.17,10.84-31.48,6.6-15.53,18.08-29.91,6.39-42.01-15.2-15.73-26.25-28.36-35.94-48.95-5.4-11.48-12.66-24.03-24.51-26.23-19.11-3.56-33.67,17.44-52.9,4.62-7.01-4.67-13.74-10.68-21.95-11.73-8.51-1.09-16.83,3.45-23.77,8.92-8.65,6.83-16.5,14.84-26.6,19.23-16.65,7.23-35.8,10.13-49.46,23.64-9.14,9.04-14.18,21.29-18.79,33.38-3.91,10.25-10.83,22.02-11.84,33.03-1.14,12.4,6.08,38.95,15.89,46.79,4.74,3.79,8.23,12.84,8.23,12.84,0,0,15.08-27.76,17.62-34.09,2.54-6.33,14.95-22.73,23.51-28.73,8.55-6,11.42-8.2,18.17-11.37,4.45-2.09,14.63-7.02,14.92,1.31Z"/>
    <path class="cls-15" d="M1145.24,662.63c-.26,4.88-4.43,8.62-9.31,8.36-4.88-.26-8.62-4.43-8.36-9.31,.26-4.88,4.43-8.62,9.31-8.36,4.88,.26,8.62,4.43,8.36,9.31Z"/>
    <path class="cls-15" d="M1250.72,668.32c-.26,4.88-4.43,8.62-9.31,8.36s-8.62-4.43-8.36-9.31c.26-4.88,4.43-8.62,9.31-8.36,4.88,.26,8.62,4.43,8.35,9.31Z"/>
    <path class="cls-14" d="M1115.17,637.19c-2.3-.01-4.49-1.38-5.43-3.64-1.26-3.01,.17-6.49,3.19-7.75,28.53-11.88,50.08-.51,50.99-.02,2.88,1.56,3.95,5.16,2.39,8.03-1.56,2.87-5.12,3.95-8.01,2.4-.82-.44-17.79-9.07-40.81,.53-.76,.3-1.55,.45-2.32,.45Z"/>
    <path class="cls-14" d="M1222.48,640.95c-2.3-.16-4.39-1.67-5.19-3.98-1.07-3.09,.58-6.47,3.67-7.54,29.23-10.06,50.01,2.66,50.89,3.2,2.78,1.74,3.61,5.4,1.88,8.17-1.74,2.77-5.36,3.61-8.15,1.89-.79-.49-17.18-10.17-40.76-2.05-.77,.26-1.57,.35-2.34,.3Z"/>
    <path class="cls-15" d="M1296.04,650.91h0c-.2-1.29-.81-2.47-1.7-3.38-.21-.23-.44-.42-.69-.59,0-.01-.01-.01-.01-.01-.46-.36-.97-.64-1.53-.85-2.08-.78-4.97-1.7-8.77-2.54-2.24-.5-5.82-1.19-10.26-1.89-4.25-.69-9.28-1.4-14.66-1.99h-.04c-7.69-.86-16.1-1.47-23.95-1.46h-.01c-4.29,.01-8.41,.21-12.16,.66-1.24,.15-2.39,.31-3.46,.47-14.15,2.17-14.79,5.65-14.67,7.59,.02,.31-.3,.49-.56,.33-2.97-1.84-6.46-2.61-9.88-2.8-3.41-.18-6.98,.21-10.13,1.72-.27,.13-.57-.08-.52-.39,.36-2.04-.01-5.97-17.18-9.97-.33-.08-.68-.15-1.02-.23-4.38-.95-9.3-1.63-14.4-2.07h-.01c-6-.53-12.25-.76-18.2-.8h-.01c-8.8-.07-16.91,.28-22.55,.69-2.17,.15-3.97,.31-5.3,.46-4.1,.46-7.25,1.1-9.51,1.67-1.18,.3-2.18,.94-2.93,1.82h-.01c-.89,1.01-1.44,2.28-1.51,3.67,0,.11-.01,.23-.01,.33,0,2.35,1.32,4.6,3.49,5.49,.9,.37,1.84,1.02,2.67,2.13,2.17,2.91,2.73,5.38,5.34,6.6,.14,.06,.23,.19,.21,.33-.4,5.75-.34,15.54,1.91,22.95,1.44,4.69,3.56,8.41,6.57,11.34,2.86,2.83,6.54,4.93,11.17,6.45,4.51,1.48,9.74,2.39,14.94,2.66,5.45,.3,10.9-.08,15.49-1.2,9.98-2.41,17.57-9.51,21.35-19.98,3.43-9.52,4.82-18.89,4.58-24.37,.78,.25,1.5,.1,2.22-.51h.09c.14-.13,.33-.27,.46-.43,1.2-1.1,5.01-3.89,12.53-3.49,7.53,.42,11.01,3.59,12.07,4.81,.12,.18-.01,.32,.11,.46h-.24c.55,.55,1.32,.82,2.03,.81,.24,0,.43,.17,.4,.4-.72,5.49-.11,14.72,2.21,24.29,2.62,10.82,9.46,18.7,19.14,22.17,4.44,1.6,9.84,2.56,15.3,2.86,5.2,.28,10.5-.05,15.13-1.03,2.91-.63,5.48-1.5,7.78-2.65,5.37-2.7,9.12-6.93,11.77-13.13,3.04-7.12,4.12-16.85,4.33-22.61,0-.15,.11-.27,.25-.32,2.71-.93,3.29-3.34,5.76-6,.87-.93,1.76-1.46,2.58-1.76,.97-.34,1.82-.93,2.48-1.66,.56-.63,1-1.38,1.26-2.18,.18-.51,.27-1.04,.31-1.6,0-.11,.01-.21,.01-.33,0-.32-.02-.63-.07-.93Zm-124.51,26.52c-3.53,9.81-10.58,16.44-19.86,18.68-8.58,2.08-20.31,1.51-29.18-1.41-4.37-1.44-7.79-3.37-10.44-6-2.7-2.67-4.59-6.08-5.92-10.42-2.46-8.05-2.15-19.09-1.61-24.15v-.05c.77-3.21,2.71-9.27,6.87-12.42,.61-.45,1.26-.84,1.96-1.16,7.47-3.34,23.22-4.88,38.68-1.48,15.47,3.38,21.31,7.46,23.56,12,.07,.17,.17,.32,.25,.47,.95,4.19-.38,15.07-4.3,25.94Zm109.84-13.75c-.01,5.07-.9,16.09-4.21,23.83-2.58,6.02-6.13,9.97-11.4,12.42-1.96,.91-4.16,1.63-6.62,2.15-9.13,1.95-20.86,1.25-29.17-1.75-8.98-3.22-15.28-10.58-17.74-20.71-2.72-11.23-2.87-22.19-1.47-26.26,.11-.13,.2-.28,.3-.44,2.72-4.27,8.96-7.69,24.71-9.39,14.64-1.59,29.05,1.08,36.69,4.79,.58,.27,1.12,.57,1.61,.85,5.25,3.06,6.84,10.71,7.31,14.45v.06Z"/>
    <path d="M1184.67,755.23c-11,0-18.55-5.07-18.67-5.15-.42-.29-.52-.86-.24-1.28,.29-.42,.86-.53,1.28-.24,.75,.51,18.56,12.4,39.56-2.71,.42-.3,.99-.2,1.29,.21,.3,.41,.2,.99-.21,1.29-8.35,6.01-16.32,7.88-23.01,7.88Z"/>
    <path d="M1186.9,721.23c-.17,0-.34-.05-.5-.14-.18-.12-4.46-2.88-4.81-6.28-.31-3.05,.96-18.53,1.02-19.19,.04-.51,.49-.89,1-.84,.51,.04,.89,.49,.84,1-.46,5.51-1.26,16.55-1.02,18.85,.22,2.09,2.94,4.26,3.97,4.92,.43,.27,.56,.84,.28,1.27-.18,.28-.47,.43-.78,.43Z"/>
    <path class="cls-24" d="M965.76,1180.77c-.35,0-.71-.08-1.05-.24-1.23-.58-1.75-2.05-1.17-3.28,2.68-5.67,25.1-72.81,25.48-77.98,.1-1.35,1.29-2.38,2.64-2.27,1.36,.1,2.37,1.28,2.27,2.64-.46,6.15-23.55,74.67-25.94,79.73-.42,.89-1.3,1.41-2.23,1.41Z"/>
    <path class="cls-24" d="M1200.35,863.69c-9.56,0-21.12-1.78-34.76-6.75-1.79-.65-26.84-13.42-31.84-15.97-1.21-.62-1.69-2.1-1.07-3.31,.62-1.21,2.1-1.69,3.31-1.07,11.32,5.78,29.83,15.16,31.3,15.74,43.8,15.95,64.76-3.17,64.97-3.36,.99-.93,2.54-.89,3.48,.09,.93,.98,.9,2.53-.08,3.47-.66,.63-12.03,11.17-35.3,11.17Z"/>
    <path class="cls-6" d="M1180.49,1690.49c-.28,0-.56-.05-.84-.15-1.28-.46-1.94-1.87-1.48-3.15l29.55-81.84c.46-1.28,1.87-1.94,3.15-1.48,1.28,.46,1.94,1.87,1.48,3.15l-29.55,81.84c-.36,1-1.31,1.63-2.32,1.63Z"/>
  </g>
  <g>
    <g>
      <g>
        <polygon class="cls-16" points="2041.28 862.16 1893.97 862.16 1904.39 803.05 2028.27 803.05 2041.28 862.16"/>
        <path class="cls-22" d="M2071.17,713.43c0,78.66-47.36,142.43-105.77,142.43s-105.77-63.77-105.77-142.43c0-32.65-7.85-82.69,5.88-106.72,19.34-33.85,65.73-35.71,99.9-35.71s74.22-7.92,93.57,25.63c13.91,24.11,12.2,83.91,12.2,116.8Z"/>
        <path class="cls-22" d="M2087.28,653.54s11.28-110.4-6.07-128.65c-17.36-18.25-7.68-23.47-26.41-28.69-18.72-5.22-18.99-14.78-49.85-14.78-5.32,0-7.91-3.48-37.43-3.48-9.55,0-25.17-7.82-47.3,4.35-22.13,12.17-36.23-4.78-52.18,15.76-15.95,20.54-22.02,9.45-35.91,41.62-13.88,32.16,4.34,47.81,7.81,82.58,3.47,34.77,21.72,62.59,21.72,62.59l220.66-7.08,4.95-24.21Z"/>
        <path class="cls-16" d="M2071.17,690.32c0,78.66-47.36,142.43-105.77,142.43s-105.77-63.77-105.77-142.43c0-32.65-7.85-82.69,5.88-106.72,19.34-33.85,65.73-35.71,99.9-35.71s74.22-7.92,93.57,25.63c13.91,24.11,12.2,83.91,12.2,116.8Z"/>
        <path class="cls-16" d="M1881.13,698.32c1.37,16.71-6.23,30.98-16.98,31.86-10.75,.88-20.57-11.95-21.94-28.66-1.37-16.71,6.23-30.98,16.98-31.86,10.75-.88,20.57,11.95,21.94,28.66Z"/>
        <path class="cls-16" d="M2047.81,697.09c-2.42,16.59,4.26,31.31,14.93,32.88,10.67,1.56,21.28-10.62,23.71-27.21,2.42-16.59-4.26-31.31-14.93-32.88-10.67-1.56-21.28,10.62-23.71,27.21Z"/>
        <path class="cls-22" d="M1933.97,619c-2.56-.08-4.8,0-7.17,.09-2.34,.08-4.67,.26-6.99,.48-4.65,.45-9.29,1.09-13.91,2-4.62,.93-9.24,2.07-13.78,3.64-4.54,1.62-9.01,3.64-13.2,6.33-1.98,1.27-2.99,3.74-2.31,6.12,.83,2.92,3.87,4.61,6.78,3.78l.29-.08c3.92-1.12,7.93-2,12.02-2.75,4.12-.7,8.29-1.28,12.51-1.73,4.23-.41,8.49-.71,12.77-.9,2.14-.11,4.28-.17,6.41-.24,2.1-.08,4.34-.08,6.25-.11h.23c4.41-.08,8.02-3.61,8.16-8.06,.14-4.59-3.47-8.42-8.05-8.56Z"/>
        <path class="cls-22" d="M2044.44,631.54c-4.19-2.69-8.66-4.71-13.2-6.33-4.54-1.57-9.16-2.71-13.78-3.64-4.62-.91-9.26-1.55-13.91-2-2.33-.22-4.65-.39-6.99-.48-2.37-.09-4.6-.16-7.17-.09-4.41,.14-7.99,3.72-8.06,8.18-.07,4.59,3.59,8.37,8.18,8.44h.21c1.91,.03,4.15,.03,6.25,.12,2.13,.07,4.27,.13,6.41,.24,4.27,.2,8.54,.49,12.77,.9,4.22,.45,8.39,1.03,12.51,1.73,4.09,.76,8.1,1.64,12.02,2.75l.29,.08c2.26,.64,4.77-.23,6.11-2.31,1.64-2.55,.9-5.95-1.65-7.59Z"/>
        <path class="cls-22" d="M1919.79,675.27c0,5.28-3.45,9.56-7.7,9.56s-7.7-4.28-7.7-9.56,3.45-9.56,7.7-9.56,7.7,4.28,7.7,9.56Z"/>
        <path class="cls-22" d="M2020.35,675.27c0,5.28-3.45,9.56-7.7,9.56s-7.7-4.28-7.7-9.56,3.45-9.56,7.7-9.56,7.7,4.28,7.7,9.56Z"/>
        <path class="cls-4" d="M1965.56,733.47s-.02,0-.03,0c-1.13-.05-11.1-.59-13.35-3.77-.48-.67-.6-1.45-.36-2.24,1.36-4.47,6.46-34.08,6.51-34.38,.06-.33,.37-.56,.71-.5,.33,.06,.56,.38,.5,.71-.21,1.22-5.16,29.98-6.55,34.53-.13,.43-.07,.8,.19,1.17,1.61,2.28,9.5,3.12,12.4,3.25,.34,.02,.6,.3,.59,.64-.01,.33-.29,.59-.61,.59Z"/>
        <path class="cls-22" d="M1846.65,560.06s23.67,34.07,45.75,28.08c22.07-5.98,34.62-31.25,45.07-19.81,10.46,11.44,28.59,9.59,42.75,.67,14.16-8.92,9.53,2.54,28.11,5.46,18.59,2.92,27.62-2.85,41.22,14.39,13.61,17.24,27.55,9.01,22.9-14.39-4.65-23.41-36.25-73.67-64.13-59.31-27.88,14.36-161.68,44.91-161.68,44.91Z"/>
        <path class="cls-22" d="M2070.87,641.4c-.45-.13-.91-.24-1.38-.34-7.09-1.65-14.88-2.65-22.82-3.15-8.05-.51-16.27-.5-24.08-.09h-.02c-15.29,.78-29.09,3.04-37.23,5.72-6.61,2.18-14.4,5.28-21.04,5.28s-14.41-3.1-21.03-5.28c-8.86-2.92-24.39-5.33-41.27-5.9h-.04c-8.26-.27-16.85-.11-25.13,.67-6.72,.62-13.23,1.63-19.2,3.12-.02,0-.05,0-.06,.01-1.88,.46-3.68,.97-5.44,1.53l.85,15.76s2.39-.52,4.45,.93c.36,.25,.7,.56,1.02,.94,.56,.65,1.05,1.53,1.39,2.68,.39,1.32,.91,3.59,1.56,6.41,.97,4.21,2.23,9.66,3.85,15.03,1.96,6.58,4.44,13.01,7.5,16.91,2.18,2.75,4.97,4.88,8.13,6.48,9.88,5.06,23.4,5.2,33.33,4.77,17.63-.76,29.18-8.61,34.11-21.89,1.16-3.15,2.21-6.19,3.16-9.04,3.1-9.2,5.29-16.49,7.69-19.23,1.71-1.95,3.62-2.09,5.12-2.09s3.42,.14,5.13,2.09c2.33,2.66,4.46,9.61,7.41,18.43,1.03,3.09,2.17,6.4,3.44,9.84,4.93,13.28,16.48,21.13,34.11,21.89,9.87,.42,23.29,.28,33.15-4.69,3.23-1.61,6.08-3.75,8.3-6.57,4.07-5.15,7.1-14.82,9.28-23.32,.77-2.99,1.44-5.84,2.01-8.3,.68-2.97,1.21-5.37,1.63-6.73,.45-1.52,1.15-2.55,1.95-3.25,.17-.15,.33-.28,.51-.39,2.05-1.42,4.41-.9,4.41-.9l.85-15.76c-1.8-.58-3.67-1.1-5.6-1.57Zm-130.43,49.58c-4.74,8.93-12.7,13.47-24.64,14.99-11.93,1.52-26.21-.82-33.41-5.12-.4-.24-.78-.51-1.16-.81-3.97-3.19-6.52-9.68-8.18-15.59-.65-2.37-1.18-4.64-1.58-6.58-.23-1.07-.47-2.31-.71-3.69h0c-1.38-7.91-2.36-19.84,3.93-24.2,7.38-5.13,25.97-5.51,38.28-4.75,9.28,.57,29.36,3.04,33.15,10.25,2.73,5.19,.59,17.5-2.25,26.7-1.12,3.61-2.34,6.74-3.42,8.79Zm116.71-13.1c-.05,.23-.1,.45-.14,.68-1.45,6.76-4.21,17.02-9.51,21.39-.4,.34-.83,.64-1.27,.9-7.21,4.3-21.48,6.64-33.41,5.12-11.94-1.52-19.9-6.07-24.63-14.99-1.21-2.27-2.6-5.92-3.82-10.08-2.62-9.04-4.45-20.47-1.86-25.41,3.8-7.21,23.87-9.68,33.16-10.25,12.31-.76,30.89-.38,38.28,4.75,6.66,4.62,5.15,17.75,3.68,25.56-.15,.84-.32,1.63-.46,2.33Z"/>
        <g>
          <path class="cls-23" d="M2193.15,923.4s87.25,36.12,105.06,57.19c17.81,21.07,78.35,200.93,78.35,295.31s14.25,239.29,0,266.56c-14.25,27.27-78.35,162.52-121.09,193.73-42.74,31.21-60.25,28.87-60.25,28.87l-10.45-140.49,45.77-222.24-23.22-334.87-14.16-144.06Z"/>
          <path class="cls-2" d="M1962.4,1689.38c-4.38,20.46-9.95,100.69-15.03,188.93-.2,3.7-.41,7.41-.63,11.14h-221.17c-2.42-134.25,2.09-263.2,2.09-263.2,0,0,2.08,.11,5.84,.33,1.92,.13,4.29,.27,7.04,.46,.26,.02,.53,.03,.81,.06,.05,0,.09,0,.14,.01,20.08,1.38,59.28,4.56,99.18,10.46,20.85,3.09,41.9,6.92,60.5,11.64,26.11,6.6,47.42,14.94,56.63,25.37,.64,.72,1.22,1.45,1.74,2.2h0c.35,.51,.67,1,.96,1.51,2.02,3.48,2.73,7.17,1.89,11.1Z"/>
          <polygon class="cls-2" points="2195.22 1649.2 2195.22 1889.44 1950.4 1889.44 1948.28 1879.96 1947.37 1878.31 1899.24 1789.89 1844.04 1689.82 1834.93 1673.3 1833.9 1671.43 1821.63 1649.2 2195.22 1649.2"/>
          <path class="cls-16" d="M1893.97,862.16h147.31l19.09,34.44,132.78,26.4s88.52,42.48,91.12,49.36c2.6,6.89,33.84,362.76,20.83,450.01-13.02,87.25-5.21,183.68-18.22,227.3-13.02,43.62-538.92,18.37-538.92,18.37,0,0-106.74-647.46-72.9-677.31,33.84-29.85,203.94-76.15,209.58-86.1,5.64-9.95,9.33-42.48,9.33-42.48Z"/>
          <path class="cls-23" d="M2305.1,1426.03c-13.01,87.82-5.2,184.87-18.22,228.78-4.69,15.81-73.48,37.25-162.66,39.5-67.54,1.71-146.58-18.18-213.7-19.79-5.08-.12-10.1-.23-15.05-.34-83.23-1.72-147.5-.88-147.5-.88,0,0-106.73-651.69-72.9-681.74,29.69-26.35,164.2-65.44,200.61-81.4l105.57,186.36,92.2-197.09,119.71,23.97s88.52,42.75,91.12,49.68,33.85,365.13,20.82,452.95Z"/>
          <path class="cls-5" d="M2192.63,1316.85c-1.34,0-2.44-1.08-2.46-2.43l-1.56-111.59c-.19-13.93-6.22-56.21-6.28-56.63-.19-1.35,.74-2.59,2.09-2.79,1.33-.19,2.59,.74,2.79,2.09,.25,1.75,6.13,43.02,6.33,57.26l1.56,111.59c.02,1.36-1.07,2.48-2.43,2.5h-.04Z"/>
        </g>
        <path class="cls-1" d="M1929.1,769.37c2.33,12.05,18.8,20.57,37.78,19.21,16.5-1.18,29.59-9.45,32.64-19.6l-70.42,.39Z"/>
      </g>
      <path class="cls-5" d="M1982.73,1099.16c-.88,0-1.7-.47-2.14-1.25l-50.21-88.64c-.67-1.18-.25-2.68,.93-3.35,1.18-.67,2.68-.25,3.35,.93l47.86,84.49,59.43-127.03c.58-1.23,2.04-1.76,3.27-1.19,1.23,.58,1.76,2.04,1.19,3.27l-61.45,131.35c-.39,.83-1.21,1.38-2.13,1.42-.03,0-.06,0-.1,0Z"/>
      <path class="cls-24" d="M2110.64,1696.85c-28.94,0-63.77-2.23-100.69-9.48-91.87-18.03-154.28-12.39-154.9-12.33-1.36,.12-2.56-.86-2.68-2.22s.86-2.56,2.22-2.68c.63-.06,63.76-5.76,156.32,12.4,94.13,18.47,175.71,3.87,176.44,3.71,1.32-.3,2.65,.52,2.95,1.85,.31,1.32-.51,2.64-1.84,2.95-.45,.1-31.6,5.81-77.81,5.81Z"/>
    </g>
    <path class="cls-24" d="M1981.72,1835.97c-1.36,0-2.46-1.1-2.46-2.46v-66.49c0-.17,.02-.34,.05-.51l7.81-36.8c.28-1.33,1.59-2.19,2.92-1.9,1.33,.28,2.18,1.59,1.9,2.92l-7.76,36.55v66.23c0,1.36-1.1,2.46-2.46,2.46Z"/>
  </g>
  <g>
    <g>
      <path class="cls-22" d="M768.63,807.58s30.49-11.27,58.06,2.81c29.35,15,44.25,30,51,156,6.75,126,6,189,6.75,198.75,.75,9.75-240,6.75-240,6.75v-313.51l124.2-50.81Z"/>
      <path class="cls-25" d="M647.08,1166.37s-122.57,13.35-120.27,224.57c2.31,211.21-42.72,196.48-5.9,346.91,0,0,83.28,16.85,131.01-17.19l-4.84-415.43v-138.85h0Z"/>
      <path class="cls-12" d="M945.84,1890.91l.18-1.47h-393.13c3.93-23.5,12.91-58.25,23.95-96.53,1.02-3.55,2.07-7.15,3.12-10.76l.06-.21c3.89-13.29,8-26.89,12.19-40.52l.2-.66c19.08-62.02,39.93-124.33,51.34-157.92,.01-.02,.01-.03,.01-.05,2.69-7.91,4.86-14.21,6.34-18.55v-.02c1.51-4.33,2.33-6.7,2.33-6.7h255.82c.74,2.13,2.04,7.63,3.79,15.78h0c.44,2.04,.9,4.24,1.39,6.59,5.06,24.34,12.85,65.04,21.07,109.08t0,.02c.64,3.42,1.28,6.83,1.94,10.28,3.68,19.76,7.41,39.96,11.01,59.49,.42,2.29,.83,4.56,1.25,6.83,.9,4.9,1.79,9.75,2.67,14.52,.07,.42,.15,.83,.23,1.25,.82,4.49,1.64,8.92,2.42,13.26,.77,4.19,1.52,8.3,2.27,12.32,7.93,43.52,13.93,76.84,14.95,82.49,.11,.57,.15,.85,.15,.85l-25.53,.62Z"/>
      <path class="cls-25" d="M652.66,1171.28s-55.59,16.15-48.09,132.99c7.5,116.85-55.54,261.72,35.24,278.57l250.12-3.11c23.59-.29,42.56-19.5,42.56-43.1v-367.97l-52.43-9.1-227.41,11.71h0Z"/>
      <polygon class="cls-16" points="805.69 1129.15 715.19 1131.88 718.29 1054.15 801.19 1054.15 805.69 1129.15"/>
      <path class="cls-25" d="M707.35,1117.67h115.53c7.46,0,13.9,5.54,15.41,13.26l6.56,33.4-158.95,6.16,5.9-38.83c1.23-8.07,7.81-14,15.54-14Z"/>
      <path class="cls-8" d="M802.88,1082.27c-5.14,10.91-14.56,21.73-27.98,23.23-23.05,2.59-45.53-22.98-56.62-37.14-2.22-2.83-3.29-5.19-4.52-6.79,1.91,1.13,4.86,3.09,10.19,5.07,8.89,3.34,22.5,6.79,40.59,6.77,13.11-.01,23.13-3.14,30.36-6.77l7-.12,.98,15.74Z"/>
      <path class="cls-16" d="M841.75,962.86c1.96,62.48-35.27,114.35-83.16,115.85-47.89,1.5-88.3-47.93-90.26-110.41-1.96-62.48,35.27-114.35,83.16-115.85,47.89-1.5,88.3,47.93,90.26,110.41Z"/>
      <path class="cls-16" d="M861.51,969.7c0,12.93-11.22,25.43-20.48,25.43s-16.76-10.48-16.76-23.42,12.3-23.42,21.55-23.42,15.68,8.48,15.68,21.42Z"/>
      <path d="M809.82,929.27c-.7,0-1.41-.11-2.1-.33-18.61-6.11-30.86-.56-31.37-.32-3.35,1.57-7.38,.14-8.97-3.21-1.59-3.34-.22-7.33,3.11-8.96,.7-.34,17.37-8.22,41.43-.35,3.54,1.16,5.47,4.98,4.31,8.52-.93,2.84-3.57,4.65-6.41,4.65Z"/>
      <path d="M680.48,939.96c-2.16,0-4.29-1.03-5.59-2.95-2.08-3.06-1.33-7.22,1.71-9.33,.64-.44,15.91-10.79,40.9-6.64,3.68,.61,6.17,4.08,5.56,7.76-.61,3.68-4.11,6.15-7.76,5.56-19.31-3.18-30.59,4.14-31.06,4.45-1.15,.77-2.47,1.14-3.76,1.14Z"/>
      <path d="M754.69,993.21h-6.75c-.62,0-1.13-.5-1.13-1.13v-25.31c0-.62,.5-1.13,1.13-1.13s1.13,.51,1.13,1.13v24.19h5.62c.62,0,1.13,.51,1.13,1.13s-.5,1.13-1.13,1.13Z"/>
      <path d="M711.94,961.29c0,5.2-3.36,9.42-7.5,9.42s-7.5-4.22-7.5-9.42,3.36-9.42,7.5-9.42,7.5,4.22,7.5,9.42Z"/>
      <path d="M799.13,951.87c0,5.2-3.36,9.42-7.5,9.42s-7.5-4.22-7.5-9.42,3.36-9.42,7.5-9.42,7.5,4.22,7.5,9.42Z"/>
      <path class="cls-25" d="M727.73,1024.53c2.54,11.57,16.15,19.09,31.22,16.93,13.1-1.87,23.09-10.46,24.95-20.43l-56.18,3.5Z"/>
      <path class="cls-22" d="M766.33,805.13c23.54,47.21-33.28,64.16-54.8,89.71-23.51,27.92-39.77,83.05-38.5,119.76,3.46,100.16,37.32,180.43-28.73,272.1,13.69-55.66-7.13-98.2-24.48-148.73-19.09-55.57-18.76-112.51-12.18-170.24,4.96-43.48,6.58-113.84,39.29-146.68,18.78-18.85,104.39-46,119.39-15.92Z"/>
      <path class="cls-22" d="M760.89,852.82s10.53,18.51,34.1,29.89c33.39,16.12,40.54,69.16,40.54,69.16l13.55-7.38-26.23-98.7-61.97,7.04Z"/>
      <path class="cls-16" d="M954.17,1781.05l-16.63-5.44s-2.06-2.94,.23-6.71c2.29-3.77,7.74-3.65,10.39-3.37,2.65,.28,8.16,2.33,8.16,2.33,0,0,6.52-7.45,13.18-10.82,0,0-1.74-9.15,1.35-15.1,0,0-6.83-6.97-6.09-17.25,0,0-.7-1.23-1.74-3.14-.87,.39-2.56,1.16-3.65,1.78-1.52,.87-1.65,5.82-1.05,8.79,.6,2.98,1.27,12.41,.32,17.8-.94,5.39-5.06,9.05-11.21,8.85-6.14-.21-6.34-6.23-7.54-11.57-1.19-5.34-.68-10.35-.25-19.97,.43-9.61-2.07-14.43-3.91-23.51-1.84-9.08-1.17-16.38-1.17-16.38,.81-7.58,3.82-16.74,4.63-19.1-.89-5.48-.81-10.63,.93-14.46,3.13-6.88-7.03-57.11-7.03-57.11l51.34,5.8-4.78,56.82s16.07,33.64,21.39,48.76c5.32,15.12,9.19,23.09,8.45,30.6,0,0-7.8,30.23-15.81,36.91-8.21,6.84-26.48,18.85-31.81,19.26-5.75,.44-21.03-1.61-21.03-1.61,0,0-3.41-.15-5.94-1.54,0,0-2.46,.03-.56-5.1,1.9-5.14,7.17-3.85,19.82-5.54Z"/>
      <path class="cls-25" d="M904.21,1163.38s71.85-5.14,97.15,95.62c25.31,100.76,22.64,138.53,21.31,202.71-1.33,64.18,73.51,190.89,5.58,272.55,0,0-57.52-28.63-110.8-39.52,0,0-9.32-10.16-3.99-116.07,5.32-105.89-9.25-415.3-9.25-415.3h0Z"/>
      <path class="cls-8" d="M592.4,1740.75s-21.34,1.31-25.48,1.26c0,0,.31,29.76,12.74,39.89l.3,.24,12.45-41.39Z"/>
    </g>
    <path class="cls-9" d="M627.4,1527.51c-1.25,0-2.31-.94-2.45-2.21-.1-1-2.47-24.66,2.9-49.38,2.75-12.66,.87-19.96-1.98-31.02-2.53-9.82-5.68-22.05-6.97-42.74-2.77-44.56,13.78-69.69,14.49-70.74,.76-1.13,2.29-1.43,3.42-.67,1.13,.76,1.43,2.29,.67,3.42-.25,.38-16.31,25.03-13.66,67.68,1.26,20.22,4.35,32.2,6.83,41.82,2.92,11.32,5.03,19.5,2.03,33.3-5.21,23.95-2.84,47.59-2.81,47.82,.14,1.35-.84,2.56-2.19,2.7-.09,0-.17,.01-.26,.01Z"/>
    <path class="cls-9" d="M906.23,1565.43c-.08,0-.17,0-.26-.01-1.35-.14-2.33-1.35-2.19-2.7,2.01-19.43,3.53-36.92,1.75-54.18-.94-9.06-2.06-18.15-3.14-26.94-2.41-19.52-4.9-39.71-5.42-60.21-.03-1.36,1.04-2.49,2.4-2.52,1.35-.07,2.49,1.04,2.52,2.4,.52,20.26,2.88,39.43,5.39,59.73,1.09,8.81,2.21,17.92,3.15,27.03,1.84,17.74,.3,35.49-1.75,55.2-.13,1.27-1.2,2.21-2.45,2.21Z"/>
    <path class="cls-6" d="M788.29,1585.3h-148.48c-1.36,0-2.46-1.1-2.46-2.46s1.1-2.46,2.46-2.46h148.48c1.36,0,2.46,1.1,2.46,2.46s-1.1,2.46-2.46,2.46Z"/>
  </g>
  <g>
    <rect class="cls-16" x="2694.56" y="794.01" width="122.13" height="110.13"/>
    <path class="cls-8" d="M2816.7,802.98v34.24c-8.95,9.05-21.17,16.23-36.54,17.61-33.02,2.96-65.3-21.55-85.59-40.54v-11.36c.1,.02,.2,.06,.29,.09,14.89,4.43,37.64,9.06,67.97,9.03,21.93-.02,38.71-4.18,50.82-9.03l3.05-.04Z"/>
    <path class="cls-20" d="M2672.29,700.03c1.52,18.4-5.68,34.01-16.07,34.87-10.39,.86-20.05-13.37-21.56-31.77-1.52-18.4,5.68-34.01,16.07-34.87,10.39-.86,20.04,13.37,21.56,31.77Z"/>
    <path class="cls-20" d="M2873.13,703.82c-2.19,18.33-12.35,32.2-22.7,30.96-10.35-1.23-16.97-17.1-14.79-35.43,2.18-18.33,12.35-32.2,22.7-30.96,10.35,1.23,16.98,17.1,14.79,35.43Z"/>
    <ellipse class="cls-16" cx="2754.94" cy="700.22" rx="99.11" ry="132.15"/>
    <path class="cls-23" d="M2730.55,506.13c-2.95,0-29.5-19.47-63.71,12.98-34.22,32.45-26.35,26.16-35.79,34.81-9.44,8.65-7.08,17.78-19.67,25.8-12.59,8.02-14.95,11.95-9.44,21.39,5.51,9.44,9.35,18.88-2.8,25.17-12.15,6.29-16.87,7.87-10.58,13.37,6.29,5.51,.98,12.78,15.14,15.14,14.16,2.36,21.83,3.87,24.19,9.9,2.36,6.03,7.67,6.03,14.75,8.39,7.08,2.36,8.26,3.54,10.62,7.08,2.36,3.54,4.9,2.36,4.9,2.36,0,0,14.31-34.9,15.03-49.9,.72-15,5.44,.34,16.65-15,11.21-15.34,13.48-14.05,23.01-26.11,9.52-12.06,3.89-4.49,11.68-13.09,7.79-8.59,6.02-72.31,6.02-72.31Z"/>
    <path class="cls-13" d="M2755.73,739.76c-1.14,0-1.96-.03-2.26-.05-.65-.03-1.15-.58-1.12-1.23,.03-.65,.58-1.18,1.23-1.12,4.68,.22,12.8-.28,14.68-2.53,1.8-2.16,.93-14.56-.26-22.67-.09-.65,.35-1.24,1-1.34,.65-.1,1.24,.35,1.34,1,.51,3.44,2.87,20.77-.26,24.53-2.52,3.02-10.34,3.42-14.33,3.42Z"/>
    <path class="cls-1" d="M2722.89,766.28h65.49s-20.84,34.32-53.02,12.09c-1.1-.76-12.47-12.09-12.47-12.09Z"/>
    <path class="cls-13" d="M2731.5,656.92c-3.85,.41-7.87,.71-11.77,1.03-3.92,.34-7.83,.65-11.69,1.06-3.86,.41-7.67,.91-11.45,1.44-3.76,.61-7.43,1.31-11.1,2.06l-.24,.05c-2.59,.53-5.12-1.14-5.65-3.72-.43-2.12,.61-4.19,2.42-5.17,3.93-2.12,8.11-3.53,12.3-4.58,4.2-1,8.43-1.59,12.65-1.95,4.22-.28,8.43-.37,12.63-.13,4.21,.23,8.31,.67,12.56,1.63,2.26,.51,3.69,2.76,3.18,5.02-.41,1.8-1.91,3.07-3.65,3.25l-.19,.02Z"/>
    <path class="cls-13" d="M2778.41,648.63c4.25-.96,8.35-1.4,12.56-1.63,4.19-.24,8.41-.15,12.63,.13,4.22,.36,8.46,.96,12.65,1.95,4.19,1.04,8.37,2.46,12.3,4.58,2.33,1.25,3.19,4.16,1.94,6.48-1.03,1.9-3.15,2.83-5.17,2.42l-.24-.05c-3.67-.75-7.35-1.45-11.1-2.06-3.78-.53-7.59-1.03-11.45-1.44-3.87-.41-7.77-.72-11.69-1.06-3.9-.32-7.93-.62-11.77-1.03l-.18-.02c-2.31-.24-3.98-2.31-3.73-4.62,.19-1.83,1.55-3.27,3.25-3.65Z"/>
    <path class="cls-13" d="M2713.25,689.51c0,5.92-3.65,10.72-8.16,10.72s-8.16-4.8-8.16-10.72,3.65-10.72,8.16-10.72,8.16,4.8,8.16,10.72Z"/>
    <path class="cls-13" d="M2810.94,689.51c0,5.92-3.65,10.72-8.16,10.72s-8.16-4.8-8.16-10.72,3.65-10.72,8.16-10.72,8.16,4.8,8.16,10.72Z"/>
    <path class="cls-23" d="M2713.77,551.57s2.36,46.34,46.02,57.76c0,0,12.39-1.27,21.83,16.5,9.44,17.77-.59,15.87,10.62,21.58,11.21,5.71,10.03-.63,27.73,6.98,17.7,7.62,11.8,12.85,24.78,20.39,12.98,7.54,38.35,1.82,41.89-4.52,3.54-6.35,9.44-8.25,11.21-14.6,1.77-6.35,0-34.28,0-34.28,0,0-21.24-15.23-28.32-33.01-7.08-17.77,2.36-25.39-12.98-36.82-15.34-11.42-38.94-21.58-43.66-26.66-4.72-5.08-10.62-30.47-30.68-29.2-20.06,1.27-44.84-.73-53.69-.05-8.85,.68-13.57,8.3-14.75,16.55-1.18,8.25,0,39.35,0,39.35Z"/>
    <path class="cls-12" d="M3011.8,1889.44h-226.29c-4.57-59.21-8.58-119.77-9.17-155.85-.12-7.26,0-18.25,0-18.25l-10.7,174.1h-257.07c.2-48.93,2.8-108.59,9.79-179.26,.25-2.41,.49-4.84,.75-7.28,2.39-23.47,5.27-48.14,8.73-74.01,1.22-9.25,2.52-18.66,3.89-28.22,1.46-10.16,3.01-20.5,4.65-31.01,1.2-7.76,2.46-15.64,3.76-23.59,.61-3.74,1.23-7.51,1.88-11.3h0c1.12-6.65,2.25-13.33,3.45-20.11,2.29-13.13,4.72-26.5,7.29-40.13h418.64s1.79,7.24,4.64,20.29c1,4.49,2.09,9.66,3.29,15.47,.01,.04,.02,.06,.02,.1,.21,1.02,.43,2.07,.64,3.12,2.54,12.37,5.45,27.34,8.48,44.42,2.36,13.27,4.79,27.81,7.16,43.36,3.92,25.67,7.71,54.13,10.79,84.34,.51,4.94,1,9.93,1.47,14.96,5.54,59.66,8.17,125.19,3.89,188.87Z"/>
    <path class="cls-2" d="M2929.29,908.99s91.62,28.69,110.32,45.42c18.7,16.73,82.28,159.59,82.28,234.55s14.96,190.06,0,211.72c-14.96,21.66-82.28,129.09-127.16,153.87-44.88,24.79-63.27,22.93-63.27,22.93l-10.98-111.58,48.06-176.52-24.39-265.98-14.87-114.42Z"/>
    <path class="cls-2" d="M2642.96,887.17c10.05-3.76,36.98-11.4,55.82-4.39,18.84,7.02,64.2,14.04,85.83,4.39,21.63-9.65,49.54-10.94,69.08-6.79,19.54,4.15,74.66,15.56,106.77,41.88,32.1,26.32,51.62,522.84,21.97,564.95-10.36,14.71-61.95,64.84-143.66,49.8-65.28-12.02-139.3,40.51-208.96,4.75-54.41-27.94-97.81-28.23-97.81-28.23,0,0-65.59-438.62-29.31-538.63,0,0,4.19-36.84,140.26-87.73Z"/>
    <path class="cls-24" d="M2776.35,1717.81s-.06,0-.08,0c-1.36-.05-2.42-1.18-2.38-2.54,.42-12.68,7.29-21.73,17.7-35.42,7.66-10.08,17.19-22.63,27.63-41.15,.67-1.18,2.17-1.6,3.35-.94,1.18,.67,1.6,2.17,.94,3.35-10.61,18.82-20.25,31.51-28,41.71-10.18,13.4-16.33,21.49-16.7,32.61-.04,1.33-1.14,2.38-2.46,2.38Z"/>
    <path class="cls-2" d="M2644.7,893.92s-74.78,45.78-107.03,64.77c-32.25,18.99-53.34,46.74-60.79,62.81-7.44,16.07-24.81,30.67-23.57,40.9,1.24,10.23-28.53,54.05-34.74,90.56-6.2,36.52-17.37,157.75-17.37,162.14s19.85,105.17,19.85,105.17c0,0,58.31,70.11,70.71,86.18,12.41,16.07,49.62,42.36,54.58,42.36s35.98-24.83,34.73-49.66-9.92-96.41-18.61-108.09c-6.79-9.14-15.1-17.38-21.37-29.63-1.75-3.41-3.33-7.13-4.69-11.27-6.2-18.99,11.17-64.27,11.17-64.27,0,0,55.82-160.68,53.34-182.59-2.48-21.91,16.13-99.33,11.16-119.78-4.96-20.45,32.6-89.6,32.6-89.6Z"/>
    <path class="cls-24" d="M2671.54,1555.77c-43.61,0-63.36-23.7-64.21-24.74-.86-1.06-.7-2.61,.36-3.46,1.06-.86,2.6-.7,3.46,.36,.3,.37,20.54,24.37,64.49,22.85,38.05-1.32,57.23-5.93,72.65-9.63,3.18-.76,6.18-1.49,9.23-2.15,27.81-6.11,66.36-13.35,80.08-5.73,1.19,.66,1.62,2.16,.96,3.35-.66,1.19-2.16,1.62-3.35,.96-13.68-7.6-61.06,2.81-76.63,6.23-3,.66-5.98,1.38-9.13,2.13-15.63,3.76-35.08,8.43-73.63,9.77-1.45,.05-2.88,.07-4.27,.07Z"/>
    <path class="cls-21" d="M2547.59,1338.03c-1.14,0-2.16-.79-2.41-1.95-5.61-26.53-2.75-50.37,8.5-70.87,10.35-18.86,17.02-37.96,24.09-58.17,4.14-11.85,8.42-24.1,13.49-36.19,.53-1.25,1.97-1.85,3.22-1.32,1.25,.53,1.85,1.97,1.32,3.22-5.01,11.95-9.26,24.13-13.38,35.91-6.82,19.52-13.88,39.7-24.42,58.92-10.67,19.44-13.36,42.15-8,67.48,.28,1.33-.57,2.64-1.9,2.92-.17,.04-.34,.05-.51,.05Z"/>
    <path class="cls-24" d="M2745.81,894.76c-18.71,0-50.57-10.46-52.01-10.94-1.29-.43-1.99-1.82-1.56-3.11,.43-1.29,1.82-2,3.11-1.56,.37,.12,37.23,12.22,53.95,10.53,9.42-.96,15.76-.73,19.95-.58,2.7,.1,5.04,.19,5.68-.23,1.14-.73,2.67-.4,3.4,.74,.73,1.14,.4,2.67-.74,3.4-1.95,1.25-4.43,1.16-8.52,1.01-4.06-.15-10.19-.37-19.27,.55-1.24,.13-2.57,.19-3.98,.19Z"/>
  </g>
  <g>
    <path class="cls-3" d="M3381.21,1111.09c-21.05,27.07-54.13,49.11-89.23,50.1-3.34,.09-9.05,.48-16.66,1.08-55.82,4.42-213.62,20.99-283.33,28.39-20.81,2.19-33.77,3.61-33.83,3.61-8.36,.9-14.68-29.53-14.98-34.01-1.05-15.52,4.48-30.59,12-43.91,7.64-13.56,24.36-29.32,18.19-46.37-5.44-15.13-26.35-18.28-35.43-31.55-6.53-9.56-5.47-22.74-.33-33.08,7.58-15.31,21.74-28.15,37.08-35.22,13.2-6.07,24.57-13.17,30.5-25.47,1.32-2.74,2.38-5.71,3.13-9.02,4.12-18.52,.36-41.86,12.99-58.13,10.53-13.53,36.09-27.82,60.15-54.89,3.79-4.27,7.67-8.27,11.61-12.03,.87-.84,1.77-1.68,2.68-2.5,20.3-18.62,41.95-30.13,60.15-31.34,22.56-1.5,60.15,3.76,68.42,25.56,8.27,21.8,18.8,18.8,32.33,27.07,13.53,8.27,44.36,15.04,51.37,62.16,3.97,26.56-.03,39.1-.15,48.03-.06,5.14,1.14,9.08,5.89,13.83,1.62,1.65,3.7,3.37,6.29,5.29,23.07,17.05,47.13,31.07,61.17,53.14,14.02,22.04,21.05,72.18,0,99.24Z"/>
    <path class="cls-14" d="M3381.2,1111.08c-21.05,27.07-54.13,49.11-89.23,50.1-3.34,.09-9.05,.48-16.66,1.08,1.96-11.13,3.64-24.3,2.68-33.14-1.92-18.05-3.07-10.04-7.07-22.07-4-12.03,8.03-31.07,7.01-45.11-.99-14.02-17.02-23.04-24.06-48.12-7.01-25.05,8.26-40.77,8.26-40.77l45.73-33.48c-.06,5.14,1.14,9.08,5.89,13.83,1.63,1.65,3.7,3.37,6.29,5.29,23.07,17.05,47.13,31.07,61.17,53.14,14.02,22.04,21.05,72.18,0,99.24Z"/>
    <path class="cls-16" d="M3211.39,1147.52c-8.56,3.75-18.64,7.24-29.86,9.5h-52.84c-7.75-1.59-15.75-3.97-23.96-7.34l.63-28.54,4.3-67.59,.35-5.34,.77-12.22,88.34,2.38,1.46,11.52,2.86,22.56,6.24,49.19,1.71,25.89Z"/>
    <path class="cls-16" d="M3263.81,968.52c-3,11.41-13.35,18.57-23.13,16-9.78-2.57-15.27-13.9-12.28-25.31,3-11.41,13.35-18.57,23.13-16,9.78,2.57,15.27,13.9,12.28,25.31Z"/>
    <path class="cls-1" d="M3374.04,1175.03l-17.75,414.88-131,4.13-251.7,7.93-20.05-433.75,151.81-47.09s36.15,27.1,104.32,.49c1.64-.64,8.83,.72,19.39,3.34,16.42,4.07,40.96,11.17,65.23,18.46,11.03,8.04,22.12,15.96,44.12,18.32,10.78,1.16,23.42,6.2,35.63,13.29Z"/>
    <path class="cls-14" d="M3076.44,996.69s8.03,40.78-6.53,66.86c-14.53,26.07-20.54,27.58-14.53,51.37,6.01,23.82,7.31,18.41,6.01,32.3-.66,7.46-36.03,27.64-69.41,43.46-20.81,2.19-33.77,3.61-33.83,3.61-8.36,.9-14.68-29.53-14.98-34.01-1.05-15.52,4.48-30.59,12-43.91,7.64-13.56,24.36-29.32,18.19-46.37-5.44-15.13-26.35-18.28-35.43-31.55-6.53-9.56-5.47-22.74-.33-33.08,7.58-15.31,21.74-28.15,37.08-35.22,13.2-6.07,24.57-13.17,30.5-25.47,1.32-2.74,2.38-5.71,3.13-9.02,4.12-18.52,.36-41.86,12.99-58.13,10.53-13.53,36.09-27.82,60.15-54.89,3.79-4.27,7.67-8.27,11.61-12.03,.87-.84,1.77-1.68,2.68-2.5l8.57,95.67-27.88,92.93Z"/>
    <path class="cls-16" d="M3239.84,950.68c0,64.78-37.03,117.29-82.7,117.29s-87.21-49.5-87.21-114.28,41.54-120.3,87.21-120.3,82.7,52.51,82.7,117.29Z"/>
    <path d="M3123.45,919.37c-2.18-.68-5.09-1.33-7.74-1.78-2.72-.46-5.47-.81-8.23-.99-5.53-.4-11.09-.22-16.56,.49h-.08c-3.13,.41-5.99-1.79-6.39-4.92-.4-3.05,1.71-5.85,4.72-6.36,6.26-1.05,12.61-1.48,18.93-1.26,3.16,.09,6.32,.37,9.47,.78,3.22,.44,6.14,.93,9.67,1.89,3.39,.92,5.39,4.41,4.47,7.8-.92,3.39-4.41,5.39-7.8,4.47-.07-.02-.14-.04-.21-.06l-.24-.07Z"/>
    <path d="M3175.16,907.86c3.55-.87,6.48-1.28,9.71-1.65,3.16-.34,6.32-.54,9.48-.55,6.32-.06,12.66,.52,18.89,1.73,3.1,.6,5.12,3.59,4.52,6.69-.58,3.02-3.45,5.02-6.47,4.56h-.09c-5.45-.86-11.01-1.18-16.54-.92-2.77,.11-5.53,.39-8.26,.78-2.66,.38-5.58,.96-7.78,1.58l-.21,.06c-3.38,.97-6.9-.99-7.86-4.36-.97-3.38,.99-6.9,4.36-7.86,.07-.02,.17-.04,.24-.06Z"/>
    <path d="M3118.54,938.05c0,4.9-3.48,8.87-7.77,8.87s-7.77-3.97-7.77-8.87,3.48-8.87,7.77-8.87,7.77,3.97,7.77,8.87Z"/>
    <path d="M3199.12,939.56c0,4.9-3.48,8.87-7.77,8.87s-7.77-3.97-7.77-8.87,3.48-8.87,7.77-8.87,7.77,3.97,7.77,8.87Z"/>
    <path class="cls-16" d="M3090.04,953.68c6.31,9.97,4.08,22.69-4.97,28.41-9.05,5.73-21.5,2.29-27.8-7.68-6.31-9.97-4.08-22.69,4.97-28.41,9.05-5.73,21.5-2.29,27.8,7.68Z"/>
    <path class="cls-14" d="M3313.74,953.4c-13.2,11.55-29.05,25.23-30.8,27.85-3.01,4.51-29.68,5.07-25.29-1.89,1.45-2.29,7.25-36.46-13.05-33.45-20.3,3.01-21.8-9.02-27.04-17.29-5.23-8.27-.78-30.07-.03-37.86,.75-7.76-10.53-19.28-24.81-14.02-14.29,5.26-43.61,18.05-51.88,12.78-8.27-5.26-1.5-21.8-25.56-18.04-24.06,3.76-24.81-27.82-24.81-27.82l2.59-33.08c21.08-20.09,43.82-32.57,62.83-33.83,22.56-1.5,60.15,3.76,68.42,25.56,8.27,21.8,18.8,18.8,32.33,27.07,13.53,8.27,44.36,15.04,51.37,62.16,6.26,41.8-7.28,48.87,5.74,61.86Z"/>
    <path class="cls-23" d="M3373.19,1889.44h-395.33c1.65-60.73,15.73-131.42,30.05-188.87,1.43-5.75,2.86-11.36,4.29-16.81,9.96-38.21,19.44-68.78,24.27-83.77,2.09-6.49,3.3-10.07,3.3-10.07l53.34-2.86,15.2-.82,119.08-6.39,75.53-4.05s.31,5.85,1.41,15.74c2.29,20.63,8.03,58.85,21.62,98.13,4.8,13.91,10.59,27.96,17.57,41.41,19.59,37.78,27,104.89,29.67,158.36Z"/>
    <path class="cls-17" d="M3089.04,1120.4c1.31-.24,2.48,.83,2.35,2.16-1.91,19.64-13.96,142.67-16.72,148.2-3.01,6.02-6.02,31.08-7.02,51.13-1,20.05-1,27.07,0,55.14,1,28.07,4.01,58.14,7.02,77.19,3.01,19.05,15.54,86.46,16.29,105.26,.75,18.8,1.51,27.19,5.26,43.67,3.76,16.48,9.77,32.27,8.27,43.55-1.5,11.28-157.14,57.14-157.14,57.14,0,0-15.79-10.53-18.04-27.07-2.25-16.54-12.78-24.81-15.04-42.1-2.26-17.29-8.02-118.77,4.01-167.65,12.03-48.88-33.08-84.97-31.08-92.99,2-8.02,1.5-149.12,15.79-162.65,14.29-13.53,50.17-46.62,78.19-49.62,28.03-3.01,38.35-15.04,53.38-24.81,12.78-8.31,45.08-14.78,54.47-16.53Z"/>
    <path class="cls-24" d="M3046.6,1379.78c-.78,0-1.55-.37-2.03-1.06-4.29-6.2-2.57-11.07-.74-16.23,2.04-5.76,4.34-12.28,.43-24-3.51-10.54-9-18.85-14.31-26.89-6.12-9.26-11.9-18.01-13.35-28.67-1.26-9.26,2.23-22.2,5.61-34.71,3.62-13.41,7.37-27.27,4.13-33.35-3.29-6.17-10.85-12.12-18.15-17.87-7.29-5.73-14.17-11.15-16.63-16.74-1.54-3.48-1.3-10.11,18.45-27.32,10.31-8.98,21.32-16.8,21.43-16.88,1.11-.78,2.65-.52,3.43,.59,.78,1.11,.52,2.65-.59,3.43-20.27,14.34-40.46,33.11-38.22,38.19,1.97,4.47,8.39,9.52,15.18,14.86,7.7,6.06,15.67,12.33,19.45,19.42,4.16,7.8,.33,21.96-3.72,36.95-3.25,12.04-6.62,24.49-5.49,32.76,1.3,9.55,6.53,17.46,12.58,26.62,5.23,7.91,11.15,16.88,14.87,28.04,4.44,13.33,1.61,21.34-.46,27.2-1.69,4.78-2.71,7.66,.15,11.79,.77,1.12,.5,2.65-.62,3.43-.43,.3-.92,.44-1.4,.44Z"/>
    <path class="cls-17" d="M2902.99,1212.89c-4.01,8.5-54.42,60.22-59.57,97.9-5.15,37.68-23.2,51.81-21.69,98.9,1.5,47.1-4.51,62.8,16.54,86.34,21.05,23.55,21.05,43.96,36.09,73.78,15.04,29.83-1.38,43.96,28.63,62.8,30.01,18.84,42.04-81.63,64.6-100.47,22.56-18.84,9.02-16.12,0-47.31-9.02-31.19-46.62-61.02-48.12-72-1.5-10.99,9.52-24.99,12.03-33.65,2.02-6.99,21.05-170.34,24.06-190.84,3.01-20.5-15.86-7.53-15.86-7.53l-36.7,32.08Z"/>
    <path class="cls-24" d="M2943.93,1583c-.31,0-.62-.06-.93-.18-1.26-.51-1.86-1.95-1.35-3.21,11.1-27.2,13.55-30.26,17.6-35.33,1.53-1.91,3.27-4.08,5.88-8.15,4.12-6.42,6.81-9.39,8.59-11.36,2.23-2.46,2.83-3.12,3.71-8.01,1.3-7.22-4.98-13.11-6.51-14.43-1.41-.57-1.91-2.8-5.44-21.82-2.89-15.52-15.28-42.41-30.14-50.41-7.25-3.91-15.59-9.56-15.7-18.71-.06-4.95,1.7-9.48,3.41-13.86l.43-1.1c8.67-22.47,12.46-46.71,15.02-67.47,1.06-8.61,1.31-17.39,1.55-25.88,.24-8.43,.49-17.16,1.53-25.81,.16-1.35,1.39-2.31,2.74-2.15,1.35,.16,2.31,1.39,2.15,2.74-1.01,8.43-1.26,17.04-1.49,25.37-.24,8.6-.5,17.5-1.59,26.35-2.6,21.05-6.45,45.67-15.32,68.64l-.44,1.12c-1.6,4.12-3.12,8.01-3.07,12.01,.08,6.54,6.67,10.97,13.11,14.44,16.41,8.84,29.5,36.95,32.64,53.84,2.55,13.72,3.52,17.82,3.86,19.03,2.22,1.91,9.85,9.3,8.11,19-1.09,6.04-2.22,7.48-4.91,10.44-1.77,1.95-4.2,4.63-8.09,10.7-2.75,4.29-4.57,6.56-6.18,8.57-3.78,4.72-6.06,7.57-16.89,34.11-.39,.95-1.31,1.53-2.28,1.53Zm30.37-83.92h0Z"/>
    <path class="cls-5" d="M3108.3,1588.71c-1.3,0-2.38-1.02-2.46-2.33-.07-1.36,.97-2.52,2.32-2.59l141.65-7.68c1.32-.08,2.52,.97,2.59,2.32,.07,1.36-.97,2.52-2.32,2.59l-141.65,7.68s-.09,0-.14,0Z"/>
    <path class="cls-17" d="M3401.31,1467.01c12.03,48.88,6.27,150.35,4.01,167.65-2.26,17.29-12.79,25.56-15.04,42.1-1.83,13.44-12.59,22.9-16.56,25.99-.9,.7-2.07,.9-3.16,.58-16.82-5-154.04-46.05-155.46-56.64-1.51-11.28,4.51-27.07,8.26-43.55,.75-3.31,1.39-6.29,1.92-9.1,2.14-11.17,2.74-19.55,3.35-34.57,.75-18.79,13.27-86.21,16.29-105.26,3-19.04,6.01-49.12,7.02-77.18,1-28.08,1-35.1,0-55.14-1.01-20.05-4.01-45.12-7.02-51.13-2.69-5.37-13.58-120.61-15.87-145.08-.02-.24-.02-.47,.01-.71,.2-1.97,2.04-3.46,4.1-3.1,11.15,1.86,39.87,7.27,51.86,15.07,3.23,2.1,6.25,4.31,9.27,6.49,11.03,8.04,22.12,15.96,44.12,18.32,10.78,1.16,23.42,6.2,35.63,13.29,18.32,10.64,35.67,25.92,44.3,39.67,16.16,25.7,10.02,62.65,11.29,91.42,.94,21.31-2.43,47.1,2.77,67.9,1.99,8.03-43.11,44.11-31.08,93Z"/>
    <path class="cls-24" d="M3264.76,1381.64c-.48,0-.97-.14-1.4-.44-1.12-.77-1.4-2.31-.62-3.43,2.86-4.13,1.84-7.01,.15-11.79-2.07-5.85-4.9-13.87-.46-27.2,3.72-11.16,9.64-20.13,14.87-28.04,6.05-9.16,11.28-17.08,12.58-26.62,1.13-8.27-2.24-20.72-5.49-32.76-4.05-14.99-7.88-29.15-3.72-36.95,3.78-7.09,11.74-13.36,19.45-19.42,6.79-5.34,13.2-10.39,15.18-14.86,2.35-5.33-15.83-25-34.03-40.17-1.04-.87-1.19-2.42-.31-3.47,.87-1.04,2.42-1.19,3.47-.31,9.55,7.95,40.31,34.78,35.38,45.94-2.47,5.59-9.35,11.01-16.63,16.74-7.3,5.75-14.86,11.7-18.15,17.87-3.24,6.08,.5,19.94,4.13,33.35,3.38,12.51,6.88,25.45,5.61,34.71-1.45,10.66-7.23,19.41-13.35,28.67-5.31,8.04-10.8,16.34-14.31,26.89-3.91,11.72-1.6,18.25,.43,24,1.82,5.16,3.55,10.03-.74,16.23-.48,.69-1.25,1.06-2.03,1.06Z"/>
    <path class="cls-17" d="M3416.01,1212.89c4.01,8.5,54.42,60.22,59.57,97.9,5.15,37.68,23.2,51.81,21.69,98.9-1.5,47.1,4.51,62.8-16.54,86.34-21.05,23.55-21.05,43.96-36.09,73.78-15.04,29.83,1.38,43.96-28.63,62.8-30.01,18.84-42.04-81.63-64.59-100.47-22.56-18.84-9.02-16.12,0-47.31,9.02-31.19,46.61-61.02,48.12-72,1.5-10.99-9.52-24.99-12.03-33.65-2.02-6.99-21.05-170.34-24.06-190.84-3.01-20.5,15.86-7.53,15.86-7.53l36.7,32.08Z"/>
    <path class="cls-24" d="M3339.07,1611.35c-.9,0-1.76-.49-2.2-1.35-.04-.08-4.55-8.78-14.88-18.27-1.69-1.56-3.38-2.98-5-4.35-8.72-7.36-16.24-13.72-13.51-31.5,1.55-10.09,4.69-14.61,8.02-19.4,3.41-4.91,6.94-9.99,9.76-22.37,5.69-24.94,42.45-121.55,44.01-125.65,.48-1.27,1.91-1.91,3.18-1.42,1.27,.48,1.91,1.91,1.42,3.18-.38,1-38.2,100.39-43.81,124.99-3.03,13.31-7.01,19.03-10.52,24.08-3.12,4.49-5.81,8.37-7.19,17.34-2.32,15.06,3.31,19.81,11.82,26.99,1.66,1.41,3.38,2.86,5.16,4.49,11.03,10.13,15.74,19.28,15.94,19.66,.62,1.21,.13,2.69-1.08,3.31-.36,.18-.74,.27-1.11,.27Z"/>
    <path class="cls-5" d="M3164.35,1880.76c-1.36,0-2.46-1.1-2.46-2.46v-145.95l-31.85-26.62c-1.04-.87-1.18-2.42-.31-3.47,.87-1.04,2.42-1.18,3.47-.31l32.73,27.36c.56,.47,.88,1.16,.88,1.89v147.1c0,1.36-1.1,2.46-2.46,2.46Z"/>
    <path class="cls-8" d="M3203.44,1072.44c-6.43,8.76-16.11,16.27-28.85,17.52-26,2.57-51.37-21.56-64.93-36.41l.35-5.34c1.35,.56,2.88,1.14,4.65,1.71,10.46,3.43,26.45,7,47.75,6.98,15.41-.02,27.2-3.23,35.71-6.98l2.46-.04,2.86,22.56Z"/>
    <path d="M3153.76,974.88h-6.75c-.62,0-1.13-.51-1.13-1.13v-25.31c0-.62,.5-1.13,1.13-1.13s1.12,.5,1.12,1.13v24.19h5.63c.62,0,1.13,.5,1.13,1.12s-.5,1.13-1.13,1.13Z"/>
    <path class="cls-22" d="M3149.39,1017.38c-5.14,0-10.48-.92-15.7-2.84-.64-.23-.97-.94-.73-1.58,.23-.64,.94-.97,1.58-.73,15.48,5.68,31.99,2.17,40.14-8.53,.41-.54,1.18-.65,1.72-.23,.54,.41,.65,1.18,.23,1.72-6.01,7.89-16.16,12.19-27.24,12.19Z"/>
    <path d="M3069.92,978.73c0,.99-.81,1.8-1.8,1.8s-1.8-.81-1.8-1.8,.81-1.8,1.8-1.8,1.8,.81,1.8,1.8Z"/>
    <path d="M3244.17,979.34c0,1-.81,1.8-1.8,1.8s-1.8-.81-1.8-1.8,.81-1.8,1.8-1.8,1.8,.81,1.8,1.8Z"/>
    <circle cx="3061.44" cy="973.53" r="1.35"/>
  </g>
  <g>
    <g>
      <g>
        <path class="cls-16" d="M2522.34,1092.71l-42.54,50.63-13.52,16.09-120.12,142.96,7.07-199.33c16.4-1,29.18-14.6,29.18-31.03v-66.95l85.29,3.11c1.15,7.67,2.31,15.36,3.47,23.05,.19,1.3,.39,2.6,.59,3.91,.03,.19,.05,.37,.09,.57,.66,4.41,1.06,9.61,1.56,15.08,.1,1.11,.19,2.23,.31,3.36,1.97,19.7,6.22,41.19,29.47,39.74l19.15-1.17Z"/>
        <path class="cls-8" d="M2473.41,1050.78c-5.73,10.01-15.11,19.18-27.92,20.57-24.48,2.67-48.35-23.69-60.13-38.27-1.26-1.56-2.17-2.98-2.93-4.21v-1.7c2,1.14,4.79,2.64,8.96,4.14,9.44,3.44,23.88,7,43.1,6.98,13.91-.02,24.55-3.23,32.23-6.98l4.46-.08c.19,1.3,.39,2.6,.59,3.91,.03,.19,.05,.37,.09,.57,.66,4.41,1.06,9.61,1.56,15.08Z"/>
        <path d="M2511.62,988.14s101.82-11.03,60.38-138.45c-41.44-127.42-168.85-97.38-168.85-97.38,0,0-94.27,38.42-105.67,119.17-11.39,80.76,56.96,102.91,56.96,102.91l157.18,13.74Z"/>
        <path d="M2467.21,758.85s29.23-49.1,17.97-61.42c-11.26-12.32-25.43-26.63-53.89-21.51-28.47,5.12-34.51,33.33-31.77,42.75,2.73,9.43,9.74,28.19,19.01,43.41,9.27,15.22,48.69-3.24,48.69-3.24Z"/>
        <path class="cls-16" d="M2351.99,931.24c-5.83,61.14,27.44,114.32,74.3,118.78,46.86,4.47,89.57-41.48,95.4-102.61,5.83-61.14-27.44-114.32-74.3-118.78-46.86-4.47-89.57,41.48-95.4,102.61Z"/>
        <path d="M2422.82,813.43s35.22,70.96,103.59,109.29c68.37,38.33,6.73-97.38,6.73-97.38l-110.33-11.91Z"/>
        <path class="cls-16" d="M2326.08,924.44c0,13.96,12.11,27.44,22.09,27.44s18.08-11.31,18.08-25.27-13.27-25.27-23.25-25.27-16.92,9.15-16.92,23.11Z"/>
        <path class="cls-16" d="M2538.87,931.53c0,13.96-12.11,27.44-22.09,27.44s-18.08-11.31-18.08-25.27,13.27-25.27,23.25-25.27,16.92,9.15,16.92,23.11Z"/>
        <path d="M2394.07,921.8c0,5.4,3.35,9.78,7.47,9.78s7.47-4.38,7.47-9.78-3.34-9.78-7.47-9.78-7.47,4.38-7.47,9.78Z"/>
        <ellipse cx="2477.25" cy="926.61" rx="7.47" ry="9.78"/>
        <path d="M2414.01,899.17c-.61,.07-1.23,.06-1.86-.03-16.71-2.47-26.95,2.65-27.38,2.86-2.79,1.44-6.42,.83-8.08-1.38-1.66-2.2-.78-5.15,2-6.62,.58-.31,14.49-7.51,36.1-4.33,3.18,.47,5.17,2.97,4.44,5.58-.59,2.1-2.74,3.63-5.22,3.91Z"/>
        <path d="M2499.14,904.35c-.6-.12-1.19-.31-1.76-.59-15.16-7.45-26.47-5.7-26.95-5.62-3.1,.52-6.37-1.17-7.27-3.78-.91-2.6,.83-5.14,3.92-5.7,.65-.12,16.08-2.74,35.7,6.88,2.89,1.42,4.02,4.4,2.53,6.67-1.2,1.82-3.72,2.62-6.16,2.13Z"/>
        <path class="cls-13" d="M2439.33,960.84c-1.28,0-2.54-.4-3.57-1.16-3.16-2.32-3.32-3.95-2.95-7.68l1.53-15.72c.06-.59,.59-1.01,1.16-.96,.59,.06,1.02,.58,.96,1.16l-1.53,15.73c-.33,3.34-.21,4.07,2.09,5.75,.89,.65,2.03,.89,3.15,.66l3.99-.83c.57-.13,1.14,.25,1.26,.83,.12,.58-.25,1.14-.83,1.26l-3.99,.83c-.42,.09-.85,.13-1.28,.13Z"/>
        <path class="cls-1" d="M2405.85,988.17c1.88,12.06,15.4,20.66,31.04,19.4,13.6-1.1,24.41-9.3,26.97-19.43l-58.01,.03Z"/>
        <path class="cls-13" d="M2347.07,943.17c1.25,.72,1.67,2.31,.95,3.56-.72,1.25-2.31,1.67-3.56,.95-1.25-.72-1.67-2.31-.95-3.56,.72-1.25,2.31-1.67,3.56-.95Z"/>
        <path class="cls-13" d="M2523.13,948.24c1.25,.72,1.67,2.31,.95,3.56-.72,1.25-2.31,1.67-3.56,.95-1.25-.72-1.67-2.31-.95-3.56,.72-1.25,2.31-1.67,3.56-.95Z"/>
        <polygon class="cls-16" points="2583.93 1681.84 2512.74 1712.61 2471.68 1669.42 2561.18 1604.83 2599.28 1675.8 2583.93 1681.84"/>
        <path class="cls-16" d="M2180.72,1852.96l16.07-5.26s2-2.84-.22-6.48c-2.21-3.64-7.48-3.53-10.04-3.26-2.57,.27-7.88,2.26-7.88,2.26,0,0-6.3-7.2-12.74-10.46,0,0,1.68-8.84-1.31-14.6,0,0,6.6-6.73,5.88-16.67,0,0,.68-1.19,1.68-3.04,.85,.38,2.47,1.12,3.53,1.72,1.47,.84,1.59,5.62,1.01,8.5-.58,2.88-1.22,12-.31,17.21,.91,5.21,4.89,8.75,10.83,8.55,5.94-.2,6.13-6.02,7.29-11.18,1.15-5.16,.66-10.01,.24-19.3-.41-9.29,2-13.95,3.78-22.73,1.78-8.78,1.13-15.83,1.13-15.83-.78-7.33-3.69-16.18-4.48-18.46,.86-5.29,.79-10.27-.9-13.98-3.02-6.65,6.79-55.2,6.79-55.2l-49.63,5.61,4.62,54.93s-15.53,32.52-20.67,47.14c-5.14,14.62-8.88,22.32-8.17,29.58,0,0,7.54,29.22,15.29,35.68,7.94,6.61,25.6,18.22,30.75,18.62,5.56,.43,20.33-1.55,20.33-1.55,0,0,3.29-.15,5.74-1.49,0,0,2.38,.03,.54-4.93-1.83-4.97-6.93-3.72-19.16-5.35Z"/>
        <path class="cls-19" d="M2266.85,1138.75s-42.93,23.46-49.14,56.58c-6.22,33.12-26.93,79.88-38.33,99.36-11.4,19.48-25.9,59.42-27.97,73.06-2.07,13.64-31.08,209.43-22.79,256.19,8.29,46.76,1.86,83.12,17.85,89.62,15.99,6.49,67.09,0,67.09,0l74.59-454.58-21.3-120.22Z"/>
        <path class="cls-3" d="M2577.71,1889.44h-411.92c.94-7.95,1.96-16.17,3.06-24.61,1.28-9.72,2.68-19.76,4.23-30.06,.9-6.06,1.85-12.19,2.85-18.43h0c4.46-27.86,9.91-57.42,16.55-88.07h0c.43-1.99,.87-3.98,1.31-5.97,0-.01,0-.02,.01-.04,.46-2.14,.94-4.26,1.42-6.41,.03-.17,.07-.33,.11-.5,2.11-9.33,4.33-18.77,6.67-28.27,1.37-5.59,2.78-11.22,4.25-16.86,5.91-22.9,12.51-46.14,19.9-69.5h0c1.31-4.14,2.64-8.29,3.99-12.43,0,0,1.22-1.18,4.46-2.96,7.23-3.97,24.49-10.9,60.75-14.4h0s.11-.02,.17-.02c17.69-1.71,39.89-2.59,67.64-1.92,30.75,.74,68.31,3.38,114.09,8.95,0,0,2.53,8.77,6.84,22.78,3.93,12.71,9.33,29.75,15.65,48.44,5.82,17.2,12.42,35.81,19.38,53.73,.77,2,1.54,3.98,2.33,5.95,9.06,22.9,18.63,44.3,27.76,59.71,13.35,22.51,22.66,70.87,28.51,120.88Z"/>
        <path class="cls-19" d="M2230.14,1456.74c1.04-10.36,6.71-79.77,6.71-79.77,0,0,3.65-98.41,.21-132.6-2.19-21.46,12.8-63.77,24.24-92.28,1.99-4.93,3.85-9.41,5.55-13.34l22.29-9.2,76.37-31.58s-15.21,114.62-6.92,176.77c0,0,121.54-127.05,146.4-185.06,0,0,82.87,15.17,103.59,12.43,20.72-2.78,67.71,9.66,87.02,154.69,19.35,145.03,81.51,220.98,84.28,247.25,2.74,26.23,16.58,55.24-16.57,88.39-33.15,33.15-88.43,84.24-95.31,93.94-6.92,9.65-74.59,26.23-74.59,26.23l-70.32-127.64c-2.28-4.14-.51-9.35,3.84-11.22,11.8-5.1,32.97-14.29,38.85-17.23,8.29-4.14,61.45-31.74,61.45-31.74,0,0-41.77-56.64-46.95-116.73-2.32-26.85-3.4-48.07-3.85-63.4-.62,51.51-7.21,159.16-49.31,214.64l-22.13,41.44h-278.84s-1.38-8.7,0-16.4c2.49-13.85,2.96-117.24,3.99-127.6Z"/>
      </g>
      <path class="cls-7" d="M2156.8,1716.8c-.22,0-.43-.03-.65-.09l-14.99-4.1c-3.51-.96-7.81-5.11-9.84-28.89-1.01-11.87-.98-23.61-.97-24.91l-5.67-67.15c0-.12-.01-.24,0-.36l3.6-57.78c.14-1.25,12.73-113.65,16.73-138.64,4.18-26.15,10.52-57.19,25.84-89.12,15.21-31.69,40.8-95.67,41.05-96.31,.5-1.26,1.94-1.87,3.2-1.37,1.26,.5,1.88,1.94,1.37,3.2-.26,.64-25.91,64.77-41.19,96.61-15.05,31.36-21.29,61.96-25.42,87.76-3.98,24.87-16.56,137.16-16.68,138.29l-3.57,57.48,5.66,67.08c0,.08,0,.15,0,.23-.22,25.5,3.07,48,7.19,49.12l14.99,4.1c1.31,.36,2.08,1.71,1.72,3.02-.3,1.09-1.29,1.81-2.37,1.81Z"/>
      <path class="cls-7" d="M2222.01,1554.61c-.67,0-1.33-.27-1.82-.8-.79-.87-7.79-10.08-8.8-66.41-1.01-56.38,10.38-98.43,13.44-102.73,.79-1.11,2.32-1.37,3.43-.58,1.1,.78,1.37,2.31,.59,3.41-2.08,3.35-13.55,43.67-12.55,99.81,.96,53.3,7.18,62.72,7.58,63.26,.84,1,.75,2.5-.22,3.39-.47,.43-1.07,.65-1.66,.65Z"/>
      <path class="cls-7" d="M2358.6,1277.21c-.27,0-.55-.05-.82-.14-.89-.31-1.52-1.11-1.63-2.05-.09-.77-8.48-78.12,6.43-176.25,.2-1.35,1.46-2.27,2.8-2.06,1.34,.2,2.27,1.46,2.06,2.8-12.61,82.99-8.46,150.92-6.89,169.76,20.41-20.69,118.98-122.46,142.15-180.5,.5-1.26,1.93-1.88,3.2-1.37,1.26,.5,1.88,1.94,1.37,3.2-26.13,65.46-142.03,181.01-146.95,185.89-.47,.47-1.1,.72-1.73,.72Z"/>
      <path class="cls-7" d="M2668,1688.85c-.56,0-1.12-.19-1.58-.58-1.04-.88-1.18-2.43-.3-3.47,.24-.28,24.55-29.05,70.39-69.54l1.6-1.41c15.84-13.98,35.56-31.38,41.72-51.98,7.66-25.61,2.16-55.91-16.34-90.06-15.32-28.28-27.29-58.78-38.87-88.27-1.24-3.17-2.49-6.33-3.73-9.49-.5-1.26,.12-2.69,1.39-3.19,1.27-.5,2.7,.12,3.19,1.39,1.25,3.16,2.49,6.33,3.73,9.5,11.52,29.35,23.44,59.71,38.62,87.72,19.15,35.34,24.78,66.9,16.73,93.81-6.56,21.95-26.87,39.86-43.18,54.26l-1.6,1.41c-45.54,40.23-69.64,68.74-69.88,69.02-.49,.58-1.18,.88-1.89,.88Z"/>
      <path class="cls-7" d="M2565.28,1463.96c-.15,0-.31-.01-.46-.04-1.34-.25-2.21-1.54-1.96-2.88,.01-.07,1.45-7.67,4.49-26.53,3.04-18.77,6.58-89.27,6.62-89.98,.07-1.36,1.25-2.41,2.58-2.34,1.36,.07,2.4,1.22,2.34,2.58-.14,2.91-3.59,71.48-6.67,90.52-3.06,18.94-4.5,26.58-4.52,26.66-.22,1.18-1.26,2-2.42,2Z"/>
    </g>
    <path class="cls-13" d="M2416.41,1125.7c-3.63,0-7.12-.46-10.47-1.38-22.99-6.31-30.64-32.75-30.72-33.02l1.19-.33c.07,.26,7.55,26.04,29.87,32.17,20.49,5.62,46.64-6.54,77.7-36.15l.85,.89c-26.38,25.15-49.33,37.82-68.41,37.82Z"/>
  </g>
  <g>
    <g>
      <path class="cls-8" d="M1747.18,1705.48s25.81,7.68,30.92,8.79c0,0-8.84,36.43-26.99,45.33l-.43,.21-3.5-54.34Z"/>
      <g>
        <g>
          <path class="cls-22" d="M1724.88,1123.12s6.73-5.15,15.36,2.44c45.99,40.44,41.56,110.8,40.92,128.85-.63,18.05,15.88,83.92,24.57,108.63,8.69,24.71,19.21,39.34,25.64,82.36,6.43,43.02-.02,128.06,.72,138.55,.74,10.49,9.15,61.38,13.55,75.34,3.29,10.43-.51,42.13-11.97,47.22-11.46,5.1-18.9,11.73-61.06,6.52-42.16-5.22-31.36-19.21-32.05-38.67-.69-19.46-6.81-36.84-7-45.51-.19-8.67-1.86-25.03-1.79-46.79,.08-21.76,1.59-13.31-2.67-34.38-4.26-21.07-34.83-127.64-23.75-153.88,11.07-26.24-30.41-114.22-29.73-120.85,.67-6.63-10-66.91-10-66.91,0,0,9.09-28.37,23.56-48.63,14.47-20.26,33.62-31.48,35.7-34.26h0Z"/>
          <path class="cls-19" d="M1566.92,1492.4v80.2l-1.72,81.03-.27,12.38s0,.02,0,.04l-4.76,223.39h-193.01l18.83-227.26,2.09-25.21,.57-6.92,1.03-12.37h0s4.01-48.45,4.01-48.45l3.86-46.6,2.5-30.23h166.87Z"/>
          <path class="cls-19" d="M1763.23,1889.44h-193.01l-4.86-227.44s.01-.02,0-.04l-.17-8.33-1.73-81.03v-80.2h166.87l9.79,118.13h0s1.37,16.57,1.37,16.57l.15,1.83v.06l.89,10.67h0s5.47,66.06,5.47,66.06l.07,.82,4.33,52.36,10.82,130.54Z"/>
          <path class="cls-11" d="M1376.51,1033.39s-10.91-68.34,15.76-103.45c26.67-35.11,18.18-65.2,18.18-81.51s4.85-67.71,27.88-86.52c23.03-18.81,32.73-60.19,107.88-45.14,0,0,19.39-11.29,69.09-5.02,49.7,6.27,70.3,71.47,72.73,85.27,2.42,13.79,7.27,42.63,19.39,56.43,12.12,13.79,24.24,45.14,15.76,76.49-8.49,31.35-8.87,37.62,2.84,66.46,11.71,28.84,5.65,36.99,5.65,36.99,0,0-141.82,58.31-355.16,0Z"/>
          <polygon class="cls-16" points="1620.75 1086.05 1502.42 1086.05 1514.47 1003.48 1515.29 997.96 1516.97 986.37 1606.2 986.37 1608.1 999.39 1611.58 1023.25 1620.75 1086.05"/>
          <path class="cls-8" d="M1611.58,1023.25c-6.72,8.79-16.66,16.23-29.64,17.49-26.95,2.63-53.25-21.9-67.47-37.25l.82-5.53c1.22,.48,2.58,.97,4.12,1.46,10.92,3.54,27.6,7.22,49.81,7.2,16.09-.03,28.38-3.35,37.27-7.2l1.62-.03,3.48,23.86Z"/>
          <ellipse class="cls-16" cx="1557.57" cy="879.93" rx="100.93" ry="136.54"/>
          <path class="cls-16" d="M1487.56,903.81c5.22,14.16,.7,29.08-10.09,33.34-10.79,4.26-23.77-3.77-28.98-17.93-5.22-14.15-.7-29.08,10.09-33.33,10.79-4.26,23.77,3.77,28.98,17.92Z"/>
          <path class="cls-16" d="M1641.15,903.82c-5.21,14.16-.68,29.08,10.11,33.33,10.79,4.25,23.76-3.78,28.97-17.94,5.21-14.16,.68-29.08-10.11-33.33-10.79-4.25-23.76,3.78-28.97,17.94Z"/>
          <path class="cls-22" d="M1487.91,853.24c-2.12,0-4.14-1.29-5.02-3.44-1.18-2.87,.12-6.19,2.89-7.41,26.21-11.49,46.13-.78,46.97-.32,2.66,1.47,3.66,4.89,2.25,7.64-1.42,2.75-4.69,3.79-7.37,2.34-.76-.41-16.44-8.54-37.59,.75-.7,.29-1.42,.44-2.13,.44Z"/>
          <path class="cls-22" d="M1584.77,853.24c-2.12,0-4.14-1.29-5.02-3.44-1.18-2.87,.12-6.19,2.89-7.41,26.21-11.49,46.13-.78,46.97-.32,2.66,1.47,3.66,4.89,2.25,7.64-1.41,2.75-4.67,3.79-7.37,2.34-.76-.41-16.43-8.54-37.59,.75-.7,.29-1.42,.44-2.13,.44Z"/>
          <path class="cls-22" d="M1516.97,882.58c0,6.43-3.99,11.65-8.9,11.65s-8.9-5.22-8.9-11.65,3.99-11.65,8.9-11.65,8.9,5.21,8.9,11.65Z"/>
          <path class="cls-22" d="M1615.1,882.58c0,6.43-3.99,11.65-8.9,11.65s-8.9-5.22-8.9-11.65,3.99-11.65,8.9-11.65,8.9,5.21,8.9,11.65Z"/>
          <path class="cls-11" d="M1546.21,755.65s-59.39,84.83-67.88,128.94c-8.48,44.1-56.97,30.31-61.82,31.57-4.85,1.25,29.09-140.44,29.09-140.44l100.61-43.89v23.82Z"/>
          <path class="cls-11" d="M1546.21,726.34v29.31c13.28,27.82,29.99,53.95,49.98,77.11,21.18,24.54,47.62,45.94,73.5,64.93,4.4,3.23,10.85,6.74,14.89,10.34-3.63-21.44-10.28-42.84-14.33-64.21-3.65-19.21-5.99-39.64-11.91-58.71-1.82-2.82-112.12-58.78-112.12-58.78Z"/>
          <path class="cls-22" d="M1495.56,1028.49s-5.49,10.79-5.49,21.01,8.78,37.48-14.27,38.61c-23.05,1.14-98.73,51.1-118.53,65.87-19.8,14.76-14.31,46.56-14.31,46.56,0,0,40.62,411.39,47.2,418.2,6.59,6.81,101.27-91.14,136.68-86.88,35.4,4.26,24.15,12.21,38.42,11.07,14.27-1.14,19.76-12.49,24.15-11.92,4.39,.57,19.21,3.41,26.35,8.52,7.14,5.11,34.58-2.84,53.24,14.2,18.66,17.03,93.31,73.82,93.31,73.82,0,0,9.88-80.63-6.59-105.62-16.47-24.98,6.59-245.3,0-253.25-6.59-7.95-12.08-140.82-12.08-140.82,0,0-69.44-37.19-91.67-38.05-22.23-.85-16.47-54.51-16.47-54.51l-139.97-6.81Z"/>
          <path class="cls-22" d="M1557.54,974.12c-5.14,0-10.48-.92-15.7-2.84-.64-.23-.97-.94-.73-1.58,.23-.64,.95-.97,1.58-.73,15.48,5.68,31.99,2.17,40.14-8.53,.41-.54,1.18-.65,1.72-.23,.54,.41,.65,1.18,.23,1.72-6.01,7.89-16.16,12.19-27.24,12.19Z"/>
          <path class="cls-22" d="M1653.1,973.03c-.25,0-.5,0-.75-.02-6.29-.25-11.69-3.47-14.8-8.84-.26-.44-.11-1.01,.34-1.26,.44-.26,1.01-.11,1.26,.34,2.79,4.81,7.63,7.7,13.27,7.92,5.91,.25,11.58-2.57,14.87-7.32,4.98-7.21,5.75-17.88,1.82-25.37-2.71-5.17-7.27-8.01-12.85-8.01-.51,0-.92-.41-.92-.92s.41-.92,.92-.92h0c6.3,0,11.44,3.2,14.48,9,4.23,8.07,3.41,19.54-1.94,27.28-3.5,5.06-9.46,8.13-15.7,8.13Z"/>
          <path class="cls-22" d="M1461.73,973.03c-6.24,0-12.2-3.07-15.7-8.13-4.67-6.76-5.05-16.16-.96-23.96,3.63-6.93,10.12-11.07,17.36-11.07h0c.51,0,.92,.41,.92,.92s-.41,.92-.92,.92c-6.64,0-12.37,3.68-15.72,10.08-3.77,7.2-3.44,15.86,.84,22.06,3.28,4.75,8.99,7.57,14.87,7.32,5.65-.22,10.49-3.11,13.27-7.92,.26-.44,.82-.59,1.26-.34,.44,.25,.59,.82,.34,1.26-3.11,5.37-8.51,8.59-14.8,8.84-.25,0-.5,.02-.75,.02Z"/>
          <path class="cls-22" d="M1558.2,923.44h-1.48c-4.9,0-8.87-4.11-8.87-9.17v-26.75c0-.84,.66-1.53,1.48-1.53s1.48,.69,1.48,1.53v25.22c0,4.22,3.31,7.64,7.39,7.64h0c.82,0,1.48,.69,1.48,1.53s-.66,1.53-1.48,1.53Z"/>
          <path class="cls-16" d="M1511.76,1596.55l-53.13-32.27,3.73-10.86c2.65-3.78,5.62-8.18,2.2-11.43-3.55-3.34-9.24-4.1-13.74-1.81l-59.37,30.19-41.99,34.36c27.28,26.89,47.43,28.96,59.71,25.81,1.28,.57,2.56,1.15,3.88,1.66l45.56,17.56c4.12,2.18,9.46,1.15,12.18-2.36,1.97-2.54,3.17-6.85-5.33-12l8.5,5.15c4.37,2.31,10.02,1.15,12.78-2.62,2.57-3.33,.79-8.32-4.1-12.02l6.6,3.23c4.76,2.52,11.05,1.03,13.65-3.47,2.26-3.91,.48-8.71-3.61-11.19l-9.38-5.67,10.91,1.21c5.25,2.36,12.43,3.23,15.01-1.64,2.21-4.2,.25-9.19-4.06-11.82h0Z"/>
          <path class="cls-22" d="M1357.28,1153.98s-115.89,109.75-126.7,126.31c-10.18,15.6-16.98,19.37-24.07,24.91-7.09,5.54-4.9,10.05-29.04,50-18.01,29.8-28.78,79.22-16.39,113.38,12.81,35.33,46.93,59.45,78.56,76.66,34.28,18.66,40.82,24.7,68.18,41.35,27.36,16.65,34.53,19.81,49.46,35.78,8.92,9.54,30.13,14.08,42.92,18.23,5.63,1.82,12.52-4.48,14.18-10.33l24.8-84.17s-21.43-52.94-64.31-74.43c-24.46-12.26-53.02-25.07-67-37.4-11.35-10.01,29.71-31.3,38.23-38.64,7.02-6.05,34.14-30.44,38.96-32.1,4.83-1.66,19.31-71.16,19.31-72.2s-47.09-137.34-47.09-137.34Z"/>
        </g>
        <path class="cls-18" d="M1558.85,1811.1s-.05,0-.07,0c-1.36-.04-2.43-1.17-2.39-2.53,.15-5.53,3.71-135.5,7.15-150.63,3.92-17.21,35.07-49.64,36.4-51.01,.94-.98,2.5-1,3.48-.06,.98,.94,1.01,2.5,.06,3.48-.31,.33-31.53,32.81-35.14,48.68-3.34,14.66-6.99,148.32-7.03,149.67-.04,1.34-1.13,2.4-2.46,2.4Z"/>
      </g>
    </g>
    <path class="cls-10" d="M1363.85,1383.85c-.73,0-1.45-.32-1.93-.93-.84-1.07-.66-2.61,.4-3.46,14.49-11.47,27.39-25.44,38.34-41.53,1.88-2.77,3.69-6.03,5.6-9.49,4.48-8.11,9.12-16.5,15.94-20.71,1.16-.72,2.67-.35,3.39,.8,.71,1.16,.36,2.67-.8,3.39-5.72,3.53-10.04,11.35-14.22,18.9-1.97,3.56-3.83,6.92-5.84,9.88-11.23,16.5-24.47,30.84-39.35,42.62-.45,.36-.99,.53-1.53,.53Z"/>
    <path class="cls-10" d="M1438.71,1516.89c-.91,0-1.79-.51-2.22-1.39h0c-.07-.15-7.53-15.17-23.87-22.16-17.67-7.57-22.78-12.56-22.99-12.77-.96-.96-.96-2.52,0-3.48,.96-.96,2.52-.96,3.48,0,.03,.03,4.89,4.64,21.44,11.72,18.08,7.74,26.03,23.86,26.36,24.54,.59,1.22,.08,2.7-1.15,3.29-.35,.17-.71,.25-1.07,.25Z"/>
    <path class="cls-10" d="M1743.63,1572.69c-.19,0-.39-.02-.59-.07-1.32-.32-2.13-1.66-1.81-2.98,.03-.12,3-12.97-1.03-36.41l-.86-4.99c-2.19-12.59-2.28-13.08-.85-19.69,.56-2.62,1.34-6.2,2.29-12.3,3.4-21.79-16.33-98.2-16.53-98.97-.34-1.32,.45-2.66,1.76-3,1.32-.34,2.66,.45,3,1.76,.83,3.18,20.19,78.17,16.63,100.96-.97,6.24-1.76,9.91-2.34,12.58q-1.22,5.67,.89,17.81l.87,5c4.22,24.57,1.1,37.86,.96,38.41-.28,1.12-1.28,1.88-2.39,1.88Z"/>
  </g>
</svg>