<?xml version="1.0" encoding="UTF-8"?>
<svg id="Layer_1" data-name="Layer 1" xmlns="http://www.w3.org/2000/svg" viewBox="0 0 341.23 360">
  <defs>
    <style>
      .cls-1 {
        fill: #462708;
      }
    </style>
  </defs>
  <path class="cls-1" d="M69.8,360h216.5v-11h34.6c-10-56.3,4.7-109.8,14.1-163.7,5.8-33.2,8.8-66.3,3.4-99.7-3.5-22-11.7-42.1-26.8-58.9-29.5-33.1-79.5-36.7-110.4-4-.8,.9-1.9,1.6-3.1,2.5C168.1-2.2,132-2,95,2.8c-3.1,.4-6.2,1.2-9,2.5-14.7,7.3-29.1,14.4-45.6,17.7-13.5,2.8-19.3,15.4-19.9,27.9-.8,16,1.1,32.2,2.2,48.3,.4,5.3,1.5,10.1-8.3,7.4,2.8,3.4,4.3,5.2,7.8,9.6-5.8,4.7-11.6,9.4-17.4,14.1-6.8,5.5-6.6,11.1,.4,15.9,5.6,3.9,7.7,7.4,3,13.6-4.9,6.6,.9,9.9,6.1,13.6-4.6,5.2-6.3,9.9,1.2,14.4,1.9,1.1,2.2,6,2.1,9.2-.2,12.6,3.8,17.6,16.3,17.3,10.6-.3,21.1-2.6,31.7-2.7,4.2,0,10.6,2.3,12.3,5.5,10.3,19.2,20.3,38.6,29,58.6,4.7,10.8,3.1,20.7-7.2,30-15.4,14.1-23.9,33-29.9,54.3h0ZM210.8,46.2c13.8,2,22.2,10.6,23.6,25.4,.9,10.5,0,21.2-1.2,31.7-4.3,37.9-9.9,75.8-5.2,113.9,2.4,19.6,7.4,38.9,11.4,59-15.5-11-31.4-22.2-47.3-33.6-1.2-.9-2.3-2.3-2.7-3.8-5.4-16.5-11.1-33-15.8-49.7-.7-2.6,2.2-7.6,4.8-9.4,24.6-16.7,38.5-39.4,40.9-69.2,1.7-21.5-.4-42.7-8.5-64.3h0Z"/>
</svg>