<?xml version="1.0" encoding="utf-8"?>
<!-- Generator: Adobe Illustrator 26.5.0, SVG Export Plug-In . SVG Version: 6.00 Build 0)  -->
<svg version="1.1" id="Layer_1" xmlns="http://www.w3.org/2000/svg" xmlns:xlink="http://www.w3.org/1999/xlink" x="0px" y="0px"
	 viewBox="0 0 283.5 360" style="enable-background:new 0 0 283.5 360;" xml:space="preserve">
<style type="text/css">
	.st0{fill:#462708;}
</style>
<path class="st0" d="M283.5,360H24.9c-5.8-22.3,9.1-60,29.1-71.4c14.6-8.3,30-15.5,46.7-24c-5.7-9.1-11-18.7-17.5-27.2
	c-2.2-2.9-7.7-4.3-11.8-4.5c-8.9-0.5-17.8,0.6-26.7,0.4C34.3,233,31,229.8,30,219.4c-1-9.7-1.3-19.5-2.8-29.2
	c-0.6-4-2.8-8.2-5.5-11.3c-2.5-2.9-6.3-5.4-10-6.6c-12.6-3.9-14.1-6.2-9.1-18.2c2.7-6.6,5.5-13.1,8.6-19.5c3.6-7.4,6-14.7,2.4-23
	c-1.1-2.5-0.9-6.1,0-8.7c4.1-12,7.8-24.3,13.3-35.7c2.9-6.2,3.9-10.6,1-17.1C18.5,28.5,25.6,9.8,44,0c8.9,1.9,15.6,4.2,22.3,4.4
	c17.2,0.7,34.4-0.3,51.6,0.7c21.9,1.3,42.9,6.3,59.6,22.2c1.6,1.5,4.1,2.1,6.4,2.6c15.2,3.3,23.5,13.3,26.4,27.9
	c7.2,35.6-0.6,68.9-15.6,101.1c-2.3,4.8-4,10.1-7.1,14.3c-7.1,9.6-5.5,17.9-0.9,28.5c12.4,28.6,29.4,53.4,52.9,73.8
	C265.1,297.7,274.4,328.1,283.5,360L283.5,360z"/>
</svg>
